STARTFONT 2.1
COMMENT Exported by Fony v1.4.7
FONT hoog36
SIZE 37 100 100
FONTBOUNDINGBOX 75 36 0 -4
STARTPROPERTIES 6
COPYRIGHT "Copyright (c) Craig Kroeger (eng) & Nikolay Dubina (rus), 2001. All rights reserved."
RESOLUTION_X 100
RESOLUTION_Y 100
FONT_ASCENT 33
FONT_DESCENT 4
DEFAULT_CHAR 0
ENDPROPERTIES
CHARS 256
STARTCHAR 000
ENCODING 0
SWIDTH 72 0
DWIDTH 1 0
BBX 0 0 0 0
BITMAP
ENDCHAR
STARTCHAR 001
ENCODING 1
SWIDTH 72 0
DWIDTH 1 0
BBX 0 0 0 0
BITMAP
ENDCHAR
STARTCHAR 002
ENCODING 2
SWIDTH 72 0
DWIDTH 1 0
BBX 0 0 0 0
BITMAP
ENDCHAR
STARTCHAR 003
ENCODING 3
SWIDTH 72 0
DWIDTH 1 0
BBX 0 0 0 0
BITMAP
ENDCHAR
STARTCHAR 004
ENCODING 4
SWIDTH 72 0
DWIDTH 1 0
BBX 0 0 0 0
BITMAP
ENDCHAR
STARTCHAR 005
ENCODING 5
SWIDTH 72 0
DWIDTH 1 0
BBX 0 0 0 0
BITMAP
ENDCHAR
STARTCHAR 006
ENCODING 6
SWIDTH 72 0
DWIDTH 1 0
BBX 0 0 0 0
BITMAP
ENDCHAR
STARTCHAR 007
ENCODING 7
SWIDTH 72 0
DWIDTH 1 0
BBX 0 0 0 0
BITMAP
ENDCHAR
STARTCHAR 008
ENCODING 8
SWIDTH 72 0
DWIDTH 1 0
BBX 0 0 0 0
BITMAP
ENDCHAR
STARTCHAR 009
ENCODING 9
SWIDTH 72 0
DWIDTH 1 0
BBX 0 0 0 0
BITMAP
ENDCHAR
STARTCHAR 010
ENCODING 10
SWIDTH 72 0
DWIDTH 1 0
BBX 0 0 0 0
BITMAP
ENDCHAR
STARTCHAR 011
ENCODING 11
SWIDTH 72 0
DWIDTH 1 0
BBX 0 0 0 0
BITMAP
ENDCHAR
STARTCHAR 012
ENCODING 12
SWIDTH 72 0
DWIDTH 1 0
BBX 0 0 0 0
BITMAP
ENDCHAR
STARTCHAR 013
ENCODING 13
SWIDTH 72 0
DWIDTH 1 0
BBX 0 0 0 0
BITMAP
ENDCHAR
STARTCHAR 014
ENCODING 14
SWIDTH 72 0
DWIDTH 1 0
BBX 0 0 0 0
BITMAP
ENDCHAR
STARTCHAR 015
ENCODING 15
SWIDTH 72 0
DWIDTH 1 0
BBX 0 0 0 0
BITMAP
ENDCHAR
STARTCHAR 016
ENCODING 16
SWIDTH 72 0
DWIDTH 1 0
BBX 0 0 0 0
BITMAP
ENDCHAR
STARTCHAR 017
ENCODING 17
SWIDTH 72 0
DWIDTH 1 0
BBX 0 0 0 0
BITMAP
ENDCHAR
STARTCHAR 018
ENCODING 18
SWIDTH 72 0
DWIDTH 1 0
BBX 0 0 0 0
BITMAP
ENDCHAR
STARTCHAR 019
ENCODING 19
SWIDTH 72 0
DWIDTH 1 0
BBX 0 0 0 0
BITMAP
ENDCHAR
STARTCHAR 020
ENCODING 20
SWIDTH 72 0
DWIDTH 1 0
BBX 0 0 0 0
BITMAP
ENDCHAR
STARTCHAR 021
ENCODING 21
SWIDTH 72 0
DWIDTH 1 0
BBX 0 0 0 0
BITMAP
ENDCHAR
STARTCHAR 022
ENCODING 22
SWIDTH 72 0
DWIDTH 1 0
BBX 0 0 0 0
BITMAP
ENDCHAR
STARTCHAR 023
ENCODING 23
SWIDTH 72 0
DWIDTH 1 0
BBX 0 0 0 0
BITMAP
ENDCHAR
STARTCHAR 024
ENCODING 24
SWIDTH 72 0
DWIDTH 1 0
BBX 0 0 0 0
BITMAP
ENDCHAR
STARTCHAR 025
ENCODING 25
SWIDTH 72 0
DWIDTH 1 0
BBX 0 0 0 0
BITMAP
ENDCHAR
STARTCHAR 026
ENCODING 26
SWIDTH 72 0
DWIDTH 1 0
BBX 0 0 0 0
BITMAP
ENDCHAR
STARTCHAR 027
ENCODING 27
SWIDTH 72 0
DWIDTH 1 0
BBX 0 0 0 0
BITMAP
ENDCHAR
STARTCHAR 028
ENCODING 28
SWIDTH 72 0
DWIDTH 1 0
BBX 0 0 0 0
BITMAP
ENDCHAR
STARTCHAR 029
ENCODING 29
SWIDTH 72 0
DWIDTH 1 0
BBX 0 0 0 0
BITMAP
ENDCHAR
STARTCHAR 030
ENCODING 30
SWIDTH 72 0
DWIDTH 1 0
BBX 0 0 0 0
BITMAP
ENDCHAR
STARTCHAR 031
ENCODING 31
SWIDTH 72 0
DWIDTH 1 0
BBX 0 0 0 0
BITMAP
ENDCHAR
STARTCHAR 032
ENCODING 32
SWIDTH 432 0
DWIDTH 6 0
BBX 0 0 0 0
BITMAP
ENDCHAR
STARTCHAR 033
ENCODING 33
SWIDTH 720 0
DWIDTH 10 0
BBX 6 31 2 0
BITMAP
FC
FC
FC
FC
FC
FC
FC
FC
FC
FC
FC
FC
FC
FC
FC
FC
FC
FC
FC
00
00
00
00
00
00
FC
FC
FC
FC
FC
FC
ENDCHAR
STARTCHAR 034
ENCODING 34
SWIDTH 1584 0
DWIDTH 22 0
BBX 18 12 2 19
BITMAP
FC0FC0
FC0FC0
FC0FC0
FC0FC0
FC0FC0
FC0FC0
FC0FC0
FC0FC0
FC0FC0
FC0FC0
FC0FC0
FC0FC0
ENDCHAR
STARTCHAR 035
ENCODING 35
SWIDTH 2520 0
DWIDTH 35 0
BBX 31 31 2 0
BITMAP
03F81F80
03F81F80
03F81F80
03F81F80
03F81F80
03F81F80
FFFFFFFE
FFFFFFFE
FFFFFFFE
FFFFFFFE
FFFFFFFE
FFFFFFFE
03F81F80
03F81F80
03F81F80
03F81F80
03F81F80
03F81F80
03F81F80
FFFFFFFE
FFFFFFFE
FFFFFFFE
FFFFFFFE
FFFFFFFE
FFFFFFFE
03F81F80
03F81F80
03F81F80
03F81F80
03F81F80
03F81F80
ENDCHAR
STARTCHAR 036
ENCODING 36
SWIDTH 1584 0
DWIDTH 22 0
BBX 18 35 2 -2
BITMAP
03F000
03F000
03F000
03F000
FFFFC0
FFFFC0
FFFFC0
FFFFC0
FFFFC0
FFFFC0
FC0000
FC0000
FC0000
FC0000
FC0000
FFFFC0
FFFFC0
FFFFC0
FFFFC0
FFFFC0
000FC0
000FC0
000FC0
000FC0
000FC0
FFFFC0
FFFFC0
FFFFC0
FFFFC0
FFFFC0
FFFFC0
03F000
03F000
03F000
03F000
ENDCHAR
STARTCHAR 037
ENCODING 37
SWIDTH 2088 0
DWIDTH 29 0
BBX 25 31 2 0
BITMAP
FC0FE000
FC0FE000
FC0FE000
FC0FE000
FC0FE000
FC0FE000
000FE000
000FE000
000FE000
000FE000
000FE000
000FE000
03FFE000
03F80000
03F80000
03F80000
03F80000
03F80000
03F80000
03F80000
03F80000
03F80000
03F80000
03F80000
03F80000
FC001F80
FC001F80
FC001F80
FC001F80
FC001F80
FC001F80
ENDCHAR
STARTCHAR 038
ENCODING 38
SWIDTH 2520 0
DWIDTH 35 0
BBX 31 31 2 0
BITMAP
03FFFF80
03FFFF80
03FFFF80
03FFFF80
03FFFF80
03FFFF80
03F81F80
03F81F80
03F81F80
03F81F80
03F81F80
03F81F80
03F81F80
FFFFFF80
FFFFFF80
FFFFFF80
FFFFFF80
FFFFFF80
FFFFFF80
FC00007E
FC00007E
FC00007E
FC00007E
FC00007E
FC00007E
FFFFFF80
FFFFFF80
FFFFFF80
FFFFFF80
FFFFFF80
FFFFFF80
ENDCHAR
STARTCHAR 039
ENCODING 39
SWIDTH 720 0
DWIDTH 10 0
BBX 6 12 2 19
BITMAP
FC
FC
FC
FC
FC
FC
FC
FC
FC
FC
FC
FC
ENDCHAR
STARTCHAR 040
ENCODING 40
SWIDTH 1224 0
DWIDTH 17 0
BBX 13 31 2 0
BITMAP
03F8
03F8
03F8
03F8
03F8
03F8
FC00
FC00
FC00
FC00
FC00
FC00
FC00
FC00
FC00
FC00
FC00
FC00
FC00
FC00
FC00
FC00
FC00
FC00
FC00
03F8
03F8
03F8
03F8
03F8
03F8
ENDCHAR
STARTCHAR 041
ENCODING 41
SWIDTH 1224 0
DWIDTH 17 0
BBX 13 31 2 0
BITMAP
FC00
FC00
FC00
FC00
FC00
FC00
03F8
03F8
03F8
03F8
03F8
03F8
03F8
03F8
03F8
03F8
03F8
03F8
03F8
03F8
03F8
03F8
03F8
03F8
03F8
FC00
FC00
FC00
FC00
FC00
FC00
ENDCHAR
STARTCHAR 042
ENCODING 42
SWIDTH 2520 0
DWIDTH 35 0
BBX 31 31 2 0
BITMAP
03F81F80
03F81F80
03F81F80
03F81F80
03F81F80
03F81F80
000FE000
000FE000
000FE000
000FE000
000FE000
000FE000
FFFFFFFE
FFFFFFFE
FFFFFFFE
FFFFFFFE
FFFFFFFE
FFFFFFFE
000FE000
000FE000
000FE000
000FE000
000FE000
000FE000
000FE000
03F81F80
03F81F80
03F81F80
03F81F80
03F81F80
03F81F80
ENDCHAR
STARTCHAR 043
ENCODING 43
SWIDTH 2520 0
DWIDTH 35 0
BBX 31 31 2 0
BITMAP
000FE000
000FE000
000FE000
000FE000
000FE000
000FE000
000FE000
000FE000
000FE000
000FE000
000FE000
000FE000
FFFFFFFE
FFFFFFFE
FFFFFFFE
FFFFFFFE
FFFFFFFE
FFFFFFFE
000FE000
000FE000
000FE000
000FE000
000FE000
000FE000
000FE000
000FE000
000FE000
000FE000
000FE000
000FE000
000FE000
ENDCHAR
STARTCHAR 044
ENCODING 44
SWIDTH 792 0
DWIDTH 11 0
BBX 6 12 2 -4
BITMAP
FC
FC
FC
FC
FC
FC
FC
FC
FC
FC
FC
FC
ENDCHAR
STARTCHAR 045
ENCODING 45
SWIDTH 1656 0
DWIDTH 23 0
BBX 19 6 2 13
BITMAP
FFFFE0
FFFFE0
FFFFE0
FFFFE0
FFFFE0
FFFFE0
ENDCHAR
STARTCHAR 046
ENCODING 46
SWIDTH 720 0
DWIDTH 10 0
BBX 6 6 2 0
BITMAP
FC
FC
FC
FC
FC
FC
ENDCHAR
STARTCHAR 047
ENCODING 47
SWIDTH 1224 0
DWIDTH 17 0
BBX 13 31 2 0
BITMAP
03F8
03F8
03F8
03F8
03F8
03F8
03F8
03F8
03F8
03F8
03F8
03F8
FFF8
FC00
FC00
FC00
FC00
FC00
FC00
FC00
FC00
FC00
FC00
FC00
FC00
FC00
FC00
FC00
FC00
FC00
FC00
ENDCHAR
STARTCHAR 048
ENCODING 48
SWIDTH 2088 0
DWIDTH 29 0
BBX 25 31 2 0
BITMAP
FFFFFF80
FFFFFF80
FFFFFF80
FFFFFF80
FFFFFF80
FFFFFF80
FC001F80
FC001F80
FC001F80
FC001F80
FC001F80
FC001F80
FC001F80
FC001F80
FC001F80
FC001F80
FC001F80
FC001F80
FC001F80
FC001F80
FC001F80
FC001F80
FC001F80
FC001F80
FC001F80
FFFFFF80
FFFFFF80
FFFFFF80
FFFFFF80
FFFFFF80
FFFFFF80
ENDCHAR
STARTCHAR 049
ENCODING 49
SWIDTH 1152 0
DWIDTH 16 0
BBX 12 31 2 0
BITMAP
FFF0
FFF0
FFF0
FFF0
FFF0
FFF0
03F0
03F0
03F0
03F0
03F0
03F0
03F0
03F0
03F0
03F0
03F0
03F0
03F0
03F0
03F0
03F0
03F0
03F0
03F0
03F0
03F0
03F0
03F0
03F0
03F0
ENDCHAR
STARTCHAR 050
ENCODING 50
SWIDTH 2088 0
DWIDTH 29 0
BBX 25 31 2 0
BITMAP
FFFFFF80
FFFFFF80
FFFFFF80
FFFFFF80
FFFFFF80
FFFFFF80
00001F80
00001F80
00001F80
00001F80
00001F80
00001F80
FFFFFF80
FFFFFF80
FFFFFF80
FFFFFF80
FFFFFF80
FFFFFF80
FC000000
FC000000
FC000000
FC000000
FC000000
FC000000
FC000000
FFFFFF80
FFFFFF80
FFFFFF80
FFFFFF80
FFFFFF80
FFFFFF80
ENDCHAR
STARTCHAR 051
ENCODING 51
SWIDTH 2088 0
DWIDTH 29 0
BBX 25 31 2 0
BITMAP
FFFFFF80
FFFFFF80
FFFFFF80
FFFFFF80
FFFFFF80
FFFFFF80
00001F80
00001F80
00001F80
00001F80
00001F80
00001F80
03FFFF80
03FFFF80
03FFFF80
03FFFF80
03FFFF80
03FFFF80
00001F80
00001F80
00001F80
00001F80
00001F80
00001F80
00001F80
FFFFFF80
FFFFFF80
FFFFFF80
FFFFFF80
FFFFFF80
FFFFFF80
ENDCHAR
STARTCHAR 052
ENCODING 52
SWIDTH 2088 0
DWIDTH 29 0
BBX 25 31 2 0
BITMAP
FC001F80
FC001F80
FC001F80
FC001F80
FC001F80
FC001F80
FC001F80
FC001F80
FC001F80
FC001F80
FC001F80
FC001F80
FFFFFF80
FFFFFF80
FFFFFF80
FFFFFF80
FFFFFF80
FFFFFF80
00001F80
00001F80
00001F80
00001F80
00001F80
00001F80
00001F80
00001F80
00001F80
00001F80
00001F80
00001F80
00001F80
ENDCHAR
STARTCHAR 053
ENCODING 53
SWIDTH 2088 0
DWIDTH 29 0
BBX 25 31 2 0
BITMAP
FFFFFF80
FFFFFF80
FFFFFF80
FFFFFF80
FFFFFF80
FFFFFF80
FC000000
FC000000
FC000000
FC000000
FC000000
FC000000
FFFFFF80
FFFFFF80
FFFFFF80
FFFFFF80
FFFFFF80
FFFFFF80
00001F80
00001F80
00001F80
00001F80
00001F80
00001F80
00001F80
FFFFFF80
FFFFFF80
FFFFFF80
FFFFFF80
FFFFFF80
FFFFFF80
ENDCHAR
STARTCHAR 054
ENCODING 54
SWIDTH 2088 0
DWIDTH 29 0
BBX 25 31 2 0
BITMAP
FFFFFF80
FFFFFF80
FFFFFF80
FFFFFF80
FFFFFF80
FFFFFF80
FC000000
FC000000
FC000000
FC000000
FC000000
FC000000
FFFFFF80
FFFFFF80
FFFFFF80
FFFFFF80
FFFFFF80
FFFFFF80
FC001F80
FC001F80
FC001F80
FC001F80
FC001F80
FC001F80
FC001F80
FFFFFF80
FFFFFF80
FFFFFF80
FFFFFF80
FFFFFF80
FFFFFF80
ENDCHAR
STARTCHAR 055
ENCODING 55
SWIDTH 1800 0
DWIDTH 25 0
BBX 21 31 2 0
BITMAP
FFFFF8
FFFFF8
FFFFF8
FFFFF8
FFFFF8
FFFFF8
0001F8
0001F8
0001F8
0001F8
0001F8
0001F8
0001F8
0001F8
0001F8
0001F8
0001F8
0001F8
0001F8
0001F8
0001F8
0001F8
0001F8
0001F8
0001F8
0001F8
0001F8
0001F8
0001F8
0001F8
0001F8
ENDCHAR
STARTCHAR 056
ENCODING 56
SWIDTH 2088 0
DWIDTH 29 0
BBX 25 31 2 0
BITMAP
FFFFFF80
FFFFFF80
FFFFFF80
FFFFFF80
FFFFFF80
FFFFFF80
FC001F80
FC001F80
FC001F80
FC001F80
FC001F80
FC001F80
FFFFFF80
FFFFFF80
FFFFFF80
FFFFFF80
FFFFFF80
FFFFFF80
FC001F80
FC001F80
FC001F80
FC001F80
FC001F80
FC001F80
FC001F80
FFFFFF80
FFFFFF80
FFFFFF80
FFFFFF80
FFFFFF80
FFFFFF80
ENDCHAR
STARTCHAR 057
ENCODING 57
SWIDTH 2088 0
DWIDTH 29 0
BBX 25 31 2 0
BITMAP
FFFFFF80
FFFFFF80
FFFFFF80
FFFFFF80
FFFFFF80
FFFFFF80
FC001F80
FC001F80
FC001F80
FC001F80
FC001F80
FC001F80
FFFFFF80
FFFFFF80
FFFFFF80
FFFFFF80
FFFFFF80
FFFFFF80
00001F80
00001F80
00001F80
00001F80
00001F80
00001F80
00001F80
FFFFFF80
FFFFFF80
FFFFFF80
FFFFFF80
FFFFFF80
FFFFFF80
ENDCHAR
STARTCHAR 058
ENCODING 58
SWIDTH 720 0
DWIDTH 10 0
BBX 6 19 2 6
BITMAP
FC
FC
FC
FC
FC
FC
00
00
00
00
00
00
00
FC
FC
FC
FC
FC
FC
ENDCHAR
STARTCHAR 059
ENCODING 59
SWIDTH 720 0
DWIDTH 10 0
BBX 6 31 2 -2
BITMAP
FC
FC
FC
FC
FC
FC
00
00
00
00
00
00
00
00
00
00
00
00
FC
FC
FC
FC
FC
FC
FC
FC
FC
FC
FC
FC
FC
ENDCHAR
STARTCHAR 060
ENCODING 60
SWIDTH 1584 0
DWIDTH 22 0
BBX 18 31 2 0
BITMAP
000FC0
000FC0
000FC0
000FC0
000FC0
000FC0
03F000
03F000
03F000
03F000
03F000
03F000
FC0000
FC0000
FC0000
FC0000
FC0000
FC0000
FC0000
03F000
03F000
03F000
03F000
03F000
03F000
000FC0
000FC0
000FC0
000FC0
000FC0
000FC0
ENDCHAR
STARTCHAR 061
ENCODING 61
SWIDTH 2088 0
DWIDTH 29 0
BBX 25 19 2 6
BITMAP
FFFFFF80
FFFFFF80
FFFFFF80
FFFFFF80
FFFFFF80
FFFFFF80
00000000
00000000
00000000
00000000
00000000
00000000
00000000
FFFFFF80
FFFFFF80
FFFFFF80
FFFFFF80
FFFFFF80
FFFFFF80
ENDCHAR
STARTCHAR 062
ENCODING 62
SWIDTH 1584 0
DWIDTH 22 0
BBX 18 31 2 0
BITMAP
FC0000
FC0000
FC0000
FC0000
FC0000
FC0000
03F000
03F000
03F000
03F000
03F000
03F000
000FC0
000FC0
000FC0
000FC0
000FC0
000FC0
000FC0
03F000
03F000
03F000
03F000
03F000
03F000
FC0000
FC0000
FC0000
FC0000
FC0000
FC0000
ENDCHAR
STARTCHAR 063
ENCODING 63
SWIDTH 2088 0
DWIDTH 29 0
BBX 25 31 2 0
BITMAP
FFFFFF80
FFFFFF80
FFFFFF80
FFFFFF80
FFFFFF80
FFFFFF80
00001F80
00001F80
00001F80
00001F80
00001F80
00001F80
03FFFF80
03FFFF80
03FFFF80
03FFFF80
03FFFF80
03FFFF80
00000000
00000000
00000000
00000000
00000000
00000000
00000000
03F80000
03F80000
03F80000
03F80000
03F80000
03F80000
ENDCHAR
STARTCHAR 064
ENCODING 64
SWIDTH 2088 0
DWIDTH 29 0
BBX 25 31 2 0
BITMAP
03FFE000
03FFE000
03FFE000
03FFE000
03FFE000
03FFE000
FC001F80
FC001F80
FC001F80
FC001F80
FC001F80
FC001F80
FC0FFF80
FC0FFF80
FC0FFF80
FC0FFF80
FC0FFF80
FC0FFF80
FC000000
FC000000
FC000000
FC000000
FC000000
FC000000
FC000000
03FFFF80
03FFFF80
03FFFF80
03FFFF80
03FFFF80
03FFFF80
ENDCHAR
STARTCHAR 065
ENCODING 65
SWIDTH 2088 0
DWIDTH 29 0
BBX 25 31 2 0
BITMAP
FFFFFF80
FFFFFF80
FFFFFF80
FFFFFF80
FFFFFF80
FFFFFF80
FC001F80
FC001F80
FC001F80
FC001F80
FC001F80
FC001F80
FFFFFF80
FFFFFF80
FFFFFF80
FFFFFF80
FFFFFF80
FFFFFF80
FC001F80
FC001F80
FC001F80
FC001F80
FC001F80
FC001F80
FC001F80
FC001F80
FC001F80
FC001F80
FC001F80
FC001F80
FC001F80
ENDCHAR
STARTCHAR 066
ENCODING 66
SWIDTH 2088 0
DWIDTH 29 0
BBX 25 31 2 0
BITMAP
FFFFFF80
FFFFFF80
FFFFFF80
FFFFFF80
FFFFFF80
FFFFFF80
FC003F80
FC003F80
FC003F80
FC003F80
FC003F80
FC003F80
FFFFE000
FFFFE000
FFFFE000
FFFFE000
FFFFE000
FFFFE000
FC003F80
FC003F80
FC003F80
FC003F80
FC003F80
FC003F80
FC003F80
FFFFFF80
FFFFFF80
FFFFFF80
FFFFFF80
FFFFFF80
FFFFFF80
ENDCHAR
STARTCHAR 067
ENCODING 67
SWIDTH 2088 0
DWIDTH 29 0
BBX 25 31 2 0
BITMAP
FFFFFF80
FFFFFF80
FFFFFF80
FFFFFF80
FFFFFF80
FFFFFF80
FC000000
FC000000
FC000000
FC000000
FC000000
FC000000
FC000000
FC000000
FC000000
FC000000
FC000000
FC000000
FC000000
FC000000
FC000000
FC000000
FC000000
FC000000
FC000000
FFFFFF80
FFFFFF80
FFFFFF80
FFFFFF80
FFFFFF80
FFFFFF80
ENDCHAR
STARTCHAR 068
ENCODING 68
SWIDTH 2088 0
DWIDTH 29 0
BBX 25 31 2 0
BITMAP
FFFFE000
FFFFE000
FFFFE000
FFFFE000
FFFFE000
FFFFE000
FC003F80
FC003F80
FC003F80
FC003F80
FC003F80
FC003F80
FC003F80
FC003F80
FC003F80
FC003F80
FC003F80
FC003F80
FC003F80
FC003F80
FC003F80
FC003F80
FC003F80
FC003F80
FC003F80
FFFFE000
FFFFE000
FFFFE000
FFFFE000
FFFFE000
FFFFE000
ENDCHAR
STARTCHAR 069
ENCODING 69
SWIDTH 2088 0
DWIDTH 29 0
BBX 25 31 2 0
BITMAP
FFFFFF80
FFFFFF80
FFFFFF80
FFFFFF80
FFFFFF80
FFFFFF80
FC000000
FC000000
FC000000
FC000000
FC000000
FC000000
FFFFE000
FFFFE000
FFFFE000
FFFFE000
FFFFE000
FFFFE000
FC000000
FC000000
FC000000
FC000000
FC000000
FC000000
FC000000
FFFFFF80
FFFFFF80
FFFFFF80
FFFFFF80
FFFFFF80
FFFFFF80
ENDCHAR
STARTCHAR 070
ENCODING 70
SWIDTH 2088 0
DWIDTH 29 0
BBX 25 31 2 0
BITMAP
FFFFFF80
FFFFFF80
FFFFFF80
FFFFFF80
FFFFFF80
FFFFFF80
FC000000
FC000000
FC000000
FC000000
FC000000
FC000000
FFFFE000
FFFFE000
FFFFE000
FFFFE000
FFFFE000
FFFFE000
FC000000
FC000000
FC000000
FC000000
FC000000
FC000000
FC000000
FC000000
FC000000
FC000000
FC000000
FC000000
FC000000
ENDCHAR
STARTCHAR 071
ENCODING 71
SWIDTH 2088 0
DWIDTH 29 0
BBX 25 31 2 0
BITMAP
FFFFFF80
FFFFFF80
FFFFFF80
FFFFFF80
FFFFFF80
FFFFFF80
FC000000
FC000000
FC000000
FC000000
FC000000
FC000000
FC0FFF80
FC0FFF80
FC0FFF80
FC0FFF80
FC0FFF80
FC0FFF80
FC001F80
FC001F80
FC001F80
FC001F80
FC001F80
FC001F80
FC001F80
FFFFFF80
FFFFFF80
FFFFFF80
FFFFFF80
FFFFFF80
FFFFFF80
ENDCHAR
STARTCHAR 072
ENCODING 72
SWIDTH 2088 0
DWIDTH 29 0
BBX 25 31 2 0
BITMAP
FC001F80
FC001F80
FC001F80
FC001F80
FC001F80
FC001F80
FC001F80
FC001F80
FC001F80
FC001F80
FC001F80
FC001F80
FFFFFF80
FFFFFF80
FFFFFF80
FFFFFF80
FFFFFF80
FFFFFF80
FC001F80
FC001F80
FC001F80
FC001F80
FC001F80
FC001F80
FC001F80
FC001F80
FC001F80
FC001F80
FC001F80
FC001F80
FC001F80
ENDCHAR
STARTCHAR 073
ENCODING 73
SWIDTH 720 0
DWIDTH 10 0
BBX 6 31 2 0
BITMAP
FC
FC
FC
FC
FC
FC
FC
FC
FC
FC
FC
FC
FC
FC
FC
FC
FC
FC
FC
FC
FC
FC
FC
FC
FC
FC
FC
FC
FC
FC
FC
ENDCHAR
STARTCHAR 074
ENCODING 74
SWIDTH 1800 0
DWIDTH 25 0
BBX 21 30 2 1
BITMAP
0001F8
0001F8
0001F8
0001F8
0001F8
0001F8
0001F8
0001F8
0001F8
0001F8
0001F8
0001F8
0001F8
0001F8
0001F8
0001F8
0001F8
0001F8
0001F8
0001F8
0001F8
FC01F8
FC01F8
FC01F8
FC01F8
FFFFF8
FFFFF8
FFFFF8
FFFFF8
FFFFF8
ENDCHAR
STARTCHAR 075
ENCODING 75
SWIDTH 2088 0
DWIDTH 29 0
BBX 25 31 2 0
BITMAP
FC001F80
FC001F80
FC001F80
FC001F80
FC001F80
FC001F80
FC001F80
FC001F80
FC001F80
FC001F80
FC001F80
FC001F80
FFFFE000
FFFFE000
FFFFE000
FFFFE000
FFFFE000
FFFFE000
FC001F80
FC001F80
FC001F80
FC001F80
FC001F80
FC001F80
FC001F80
FC001F80
FC001F80
FC001F80
FC001F80
FC001F80
FC001F80
ENDCHAR
STARTCHAR 076
ENCODING 76
SWIDTH 1800 0
DWIDTH 25 0
BBX 21 31 2 0
BITMAP
FC0000
FC0000
FC0000
FC0000
FC0000
FC0000
FC0000
FC0000
FC0000
FC0000
FC0000
FC0000
FC0000
FC0000
FC0000
FC0000
FC0000
FC0000
FC0000
FC0000
FC0000
FC0000
FC0000
FC0000
FC0000
FFFFF8
FFFFF8
FFFFF8
FFFFF8
FFFFF8
FFFFF8
ENDCHAR
STARTCHAR 077
ENCODING 77
SWIDTH 2520 0
DWIDTH 35 0
BBX 31 31 2 0
BITMAP
FFFFFFFE
FFFFFFFE
FFFFFFFE
FFFFFFFE
FFFFFFFE
FFFFFFFE
FC0FE07E
FC0FE07E
FC0FE07E
FC0FE07E
FC0FE07E
FC0FE07E
FC0FE07E
FC0FE07E
FC0FE07E
FC0FE07E
FC0FE07E
FC0FE07E
FC0FE07E
FC0FE07E
FC0FE07E
FC0FE07E
FC0FE07E
FC0FE07E
FC0FE07E
FC0FE07E
FC0FE07E
FC0FE07E
FC0FE07E
FC0FE07E
FC0FE07E
ENDCHAR
STARTCHAR 078
ENCODING 78
SWIDTH 2088 0
DWIDTH 29 0
BBX 25 31 2 0
BITMAP
FFFFFF80
FFFFFF80
FFFFFF80
FFFFFF80
FFFFFF80
FFFFFF80
FC001F80
FC001F80
FC001F80
FC001F80
FC001F80
FC001F80
FC001F80
FC001F80
FC001F80
FC001F80
FC001F80
FC001F80
FC001F80
FC001F80
FC001F80
FC001F80
FC001F80
FC001F80
FC001F80
FC001F80
FC001F80
FC001F80
FC001F80
FC001F80
FC001F80
ENDCHAR
STARTCHAR 079
ENCODING 79
SWIDTH 2088 0
DWIDTH 29 0
BBX 25 31 2 0
BITMAP
FFFFFF80
FFFFFF80
FFFFFF80
FFFFFF80
FFFFFF80
FFFFFF80
FC001F80
FC001F80
FC001F80
FC001F80
FC001F80
FC001F80
FC001F80
FC001F80
FC001F80
FC001F80
FC001F80
FC001F80
FC001F80
FC001F80
FC001F80
FC001F80
FC001F80
FC001F80
FC001F80
FFFFFF80
FFFFFF80
FFFFFF80
FFFFFF80
FFFFFF80
FFFFFF80
ENDCHAR
STARTCHAR 080
ENCODING 80
SWIDTH 2088 0
DWIDTH 29 0
BBX 25 31 2 0
BITMAP
FFFFFF80
FFFFFF80
FFFFFF80
FFFFFF80
FFFFFF80
FFFFFF80
FC001F80
FC001F80
FC001F80
FC001F80
FC001F80
FC001F80
FFFFFF80
FFFFFF80
FFFFFF80
FFFFFF80
FFFFFF80
FFFFFF80
FC000000
FC000000
FC000000
FC000000
FC000000
FC000000
FC000000
FC000000
FC000000
FC000000
FC000000
FC000000
FC000000
ENDCHAR
STARTCHAR 081
ENCODING 81
SWIDTH 2088 0
DWIDTH 29 0
BBX 25 35 2 -4
BITMAP
FFFFFF80
FFFFFF80
FFFFFF80
FFFFFF80
FFFFFF80
FFFFFF80
FC001F80
FC001F80
FC001F80
FC001F80
FC001F80
FC001F80
FC001F80
FC001F80
FC001F80
FC001F80
FC001F80
FC001F80
FC001F80
FC001F80
FC001F80
FC001F80
FC001F80
FC001F80
FC001F80
FFFFFF80
FFFFFF80
FFFFFF80
FFFFFF80
FFFFFF80
FFFFFF80
000FE000
000FE000
000FE000
000FE000
ENDCHAR
STARTCHAR 082
ENCODING 82
SWIDTH 2088 0
DWIDTH 29 0
BBX 25 31 2 0
BITMAP
FFFFFF80
FFFFFF80
FFFFFF80
FFFFFF80
FFFFFF80
FFFFFF80
FC003F80
FC003F80
FC003F80
FC003F80
FC003F80
FC003F80
FFFFE000
FFFFE000
FFFFE000
FFFFE000
FFFFE000
FFFFE000
FC001F80
FC001F80
FC001F80
FC001F80
FC001F80
FC001F80
FC001F80
FC001F80
FC001F80
FC001F80
FC001F80
FC001F80
FC001F80
ENDCHAR
STARTCHAR 083
ENCODING 83
SWIDTH 2088 0
DWIDTH 29 0
BBX 25 31 2 0
BITMAP
FFFFFF80
FFFFFF80
FFFFFF80
FFFFFF80
FFFFFF80
FFFFFF80
FC000000
FC000000
FC000000
FC000000
FC000000
FC000000
FFFFFF80
FFFFFF80
FFFFFF80
FFFFFF80
FFFFFF80
FFFFFF80
00001F80
00001F80
00001F80
00001F80
00001F80
00001F80
00001F80
FFFFFF80
FFFFFF80
FFFFFF80
FFFFFF80
FFFFFF80
FFFFFF80
ENDCHAR
STARTCHAR 084
ENCODING 84
SWIDTH 2016 0
DWIDTH 28 0
BBX 24 31 2 0
BITMAP
FFFFFF
FFFFFF
FFFFFF
FFFFFF
FFFFFF
FFFFFF
007E00
007E00
007E00
007E00
007E00
007E00
007E00
007E00
007E00
007E00
007E00
007E00
007E00
007E00
007E00
007E00
007E00
007E00
007E00
007E00
007E00
007E00
007E00
007E00
007E00
ENDCHAR
STARTCHAR 085
ENCODING 85
SWIDTH 2088 0
DWIDTH 29 0
BBX 25 31 2 0
BITMAP
FC001F80
FC001F80
FC001F80
FC001F80
FC001F80
FC001F80
FC001F80
FC001F80
FC001F80
FC001F80
FC001F80
FC001F80
FC001F80
FC001F80
FC001F80
FC001F80
FC001F80
FC001F80
FC001F80
FC001F80
FC001F80
FC001F80
FC001F80
FC001F80
FC001F80
FFFFFF80
FFFFFF80
FFFFFF80
FFFFFF80
FFFFFF80
FFFFFF80
ENDCHAR
STARTCHAR 086
ENCODING 86
SWIDTH 2088 0
DWIDTH 29 0
BBX 25 31 2 0
BITMAP
FC001F80
FC001F80
FC001F80
FC001F80
FC001F80
FC001F80
FC001F80
FC001F80
FC001F80
FC001F80
FC001F80
FC001F80
FC001F80
FC001F80
FC001F80
FC001F80
FC001F80
FC001F80
FC001F80
FC001F80
FC001F80
FC001F80
FC001F80
FC001F80
FC001F80
03FFE000
03FFE000
03FFE000
03FFE000
03FFE000
03FFE000
ENDCHAR
STARTCHAR 087
ENCODING 87
SWIDTH 2520 0
DWIDTH 35 0
BBX 31 31 2 0
BITMAP
FC0FE07E
FC0FE07E
FC0FE07E
FC0FE07E
FC0FE07E
FC0FE07E
FC0FE07E
FC0FE07E
FC0FE07E
FC0FE07E
FC0FE07E
FC0FE07E
FC0FE07E
FC0FE07E
FC0FE07E
FC0FE07E
FC0FE07E
FC0FE07E
FC0FE07E
FC0FE07E
FC0FE07E
FC0FE07E
FC0FE07E
FC0FE07E
FC0FE07E
03F01F80
03F01F80
03F01F80
03F01F80
03F01F80
03F01F80
ENDCHAR
STARTCHAR 088
ENCODING 88
SWIDTH 2088 0
DWIDTH 29 0
BBX 25 31 2 0
BITMAP
FC001F80
FC001F80
FC001F80
FC001F80
FC001F80
FC001F80
FC001F80
FC001F80
FC001F80
FC001F80
FC001F80
FC001F80
03FFE000
03FFE000
03FFE000
03FFE000
03FFE000
03FFE000
FC001F80
FC001F80
FC001F80
FC001F80
FC001F80
FC001F80
FC001F80
FC001F80
FC001F80
FC001F80
FC001F80
FC001F80
FC001F80
ENDCHAR
STARTCHAR 089
ENCODING 89
SWIDTH 2088 0
DWIDTH 29 0
BBX 25 31 2 0
BITMAP
FC001F80
FC001F80
FC001F80
FC001F80
FC001F80
FC001F80
FC001F80
FC001F80
FC001F80
FC001F80
FC001F80
FC001F80
FFFFFF80
FFFFFF80
FFFFFF80
FFFFFF80
FFFFFF80
FFFFFF80
00001F80
00001F80
00001F80
00001F80
00001F80
00001F80
00001F80
FFFFFF80
FFFFFF80
FFFFFF80
FFFFFF80
FFFFFF80
FFFFFF80
ENDCHAR
STARTCHAR 090
ENCODING 90
SWIDTH 2088 0
DWIDTH 29 0
BBX 25 31 2 0
BITMAP
FFFFFF80
FFFFFF80
FFFFFF80
FFFFFF80
FFFFFF80
FFFFFF80
00001F80
00001F80
00001F80
00001F80
00001F80
00001F80
03FFE000
03FFE000
03FFE000
03FFE000
03FFE000
03FFE000
FC000000
FC000000
FC000000
FC000000
FC000000
FC000000
FC000000
FFFFFF80
FFFFFF80
FFFFFF80
FFFFFF80
FFFFFF80
FFFFFF80
ENDCHAR
STARTCHAR 091
ENCODING 91
SWIDTH 1224 0
DWIDTH 17 0
BBX 13 35 2 -4
BITMAP
FFF8
FFF8
FFF8
FFF8
FFF8
FFF8
FC00
FC00
FC00
FC00
FC00
FC00
FC00
FC00
FC00
FC00
FC00
FC00
FC00
FC00
FC00
FC00
FC00
FC00
FC00
FC00
FC00
FC00
FC00
FFF8
FFF8
FFF8
FFF8
FFF8
FFF8
ENDCHAR
STARTCHAR 092
ENCODING 92
SWIDTH 1224 0
DWIDTH 17 0
BBX 13 31 2 0
BITMAP
03F8
03F8
03F8
03F8
03F8
03F8
03F8
03F8
03F8
03F8
03F8
03F8
FFF8
FC00
FC00
FC00
FC00
FC00
FC00
FC00
FC00
FC00
FC00
FC00
FC00
FC00
FC00
FC00
FC00
FC00
FC00
ENDCHAR
STARTCHAR 093
ENCODING 93
SWIDTH 1224 0
DWIDTH 17 0
BBX 13 35 2 -4
BITMAP
FFF8
FFF8
FFF8
FFF8
FFF8
FFF8
01F8
01F8
01F8
01F8
01F8
01F8
01F8
01F8
01F8
01F8
01F8
01F8
01F8
01F8
01F8
01F8
01F8
01F8
01F8
01F8
01F8
01F8
01F8
FFF8
FFF8
FFF8
FFF8
FFF8
FFF8
ENDCHAR
STARTCHAR 094
ENCODING 94
SWIDTH 1584 0
DWIDTH 22 0
BBX 18 12 2 19
BITMAP
03F000
03F000
03F000
03F000
03F000
03F000
FC0FC0
FC0FC0
FC0FC0
FC0FC0
FC0FC0
FC0FC0
ENDCHAR
STARTCHAR 095
ENCODING 95
SWIDTH 2520 0
DWIDTH 35 0
BBX 31 6 2 0
BITMAP
FFFFFFFE
FFFFFFFE
FFFFFFFE
FFFFFFFE
FFFFFFFE
FFFFFFFE
ENDCHAR
STARTCHAR 096
ENCODING 96
SWIDTH 1152 0
DWIDTH 16 0
BBX 12 12 2 19
BITMAP
FC00
FC00
FC00
FC00
FC00
FC00
03F0
03F0
03F0
03F0
03F0
03F0
ENDCHAR
STARTCHAR 097
ENCODING 97
SWIDTH 2088 0
DWIDTH 29 0
BBX 25 31 2 0
BITMAP
FFFFFF80
FFFFFF80
FFFFFF80
FFFFFF80
FFFFFF80
FFFFFF80
FC001F80
FC001F80
FC001F80
FC001F80
FC001F80
FC001F80
FFFFFF80
FFFFFF80
FFFFFF80
FFFFFF80
FFFFFF80
FFFFFF80
FC001F80
FC001F80
FC001F80
FC001F80
FC001F80
FC001F80
FC001F80
FC001F80
FC001F80
FC001F80
FC001F80
FC001F80
FC001F80
ENDCHAR
STARTCHAR 098
ENCODING 98
SWIDTH 2088 0
DWIDTH 29 0
BBX 25 31 2 0
BITMAP
FFFFFF80
FFFFFF80
FFFFFF80
FFFFFF80
FFFFFF80
FFFFFF80
FC003F80
FC003F80
FC003F80
FC003F80
FC003F80
FC003F80
FFFFE000
FFFFE000
FFFFE000
FFFFE000
FFFFE000
FFFFE000
FC003F80
FC003F80
FC003F80
FC003F80
FC003F80
FC003F80
FC003F80
FFFFFF80
FFFFFF80
FFFFFF80
FFFFFF80
FFFFFF80
FFFFFF80
ENDCHAR
STARTCHAR 099
ENCODING 99
SWIDTH 2088 0
DWIDTH 29 0
BBX 25 31 2 0
BITMAP
FFFFFF80
FFFFFF80
FFFFFF80
FFFFFF80
FFFFFF80
FFFFFF80
FC000000
FC000000
FC000000
FC000000
FC000000
FC000000
FC000000
FC000000
FC000000
FC000000
FC000000
FC000000
FC000000
FC000000
FC000000
FC000000
FC000000
FC000000
FC000000
FFFFFF80
FFFFFF80
FFFFFF80
FFFFFF80
FFFFFF80
FFFFFF80
ENDCHAR
STARTCHAR 100
ENCODING 100
SWIDTH 2088 0
DWIDTH 29 0
BBX 25 31 2 0
BITMAP
FFFFE000
FFFFE000
FFFFE000
FFFFE000
FFFFE000
FFFFE000
FC003F80
FC003F80
FC003F80
FC003F80
FC003F80
FC003F80
FC003F80
FC003F80
FC003F80
FC003F80
FC003F80
FC003F80
FC003F80
FC003F80
FC003F80
FC003F80
FC003F80
FC003F80
FC003F80
FFFFE000
FFFFE000
FFFFE000
FFFFE000
FFFFE000
FFFFE000
ENDCHAR
STARTCHAR 101
ENCODING 101
SWIDTH 2088 0
DWIDTH 29 0
BBX 25 31 2 0
BITMAP
FFFFFF80
FFFFFF80
FFFFFF80
FFFFFF80
FFFFFF80
FFFFFF80
FC000000
FC000000
FC000000
FC000000
FC000000
FC000000
FFFFE000
FFFFE000
FFFFE000
FFFFE000
FFFFE000
FFFFE000
FC000000
FC000000
FC000000
FC000000
FC000000
FC000000
FC000000
FFFFFF80
FFFFFF80
FFFFFF80
FFFFFF80
FFFFFF80
FFFFFF80
ENDCHAR
STARTCHAR 102
ENCODING 102
SWIDTH 2088 0
DWIDTH 29 0
BBX 25 31 2 0
BITMAP
FFFFFF80
FFFFFF80
FFFFFF80
FFFFFF80
FFFFFF80
FFFFFF80
FC000000
FC000000
FC000000
FC000000
FC000000
FC000000
FFFFE000
FFFFE000
FFFFE000
FFFFE000
FFFFE000
FFFFE000
FC000000
FC000000
FC000000
FC000000
FC000000
FC000000
FC000000
FC000000
FC000000
FC000000
FC000000
FC000000
FC000000
ENDCHAR
STARTCHAR 103
ENCODING 103
SWIDTH 2088 0
DWIDTH 29 0
BBX 25 31 2 0
BITMAP
FFFFFF80
FFFFFF80
FFFFFF80
FFFFFF80
FFFFFF80
FFFFFF80
FC000000
FC000000
FC000000
FC000000
FC000000
FC000000
FC0FFF80
FC0FFF80
FC0FFF80
FC0FFF80
FC0FFF80
FC0FFF80
FC001F80
FC001F80
FC001F80
FC001F80
FC001F80
FC001F80
FC001F80
FFFFFF80
FFFFFF80
FFFFFF80
FFFFFF80
FFFFFF80
FFFFFF80
ENDCHAR
STARTCHAR 104
ENCODING 104
SWIDTH 2088 0
DWIDTH 29 0
BBX 25 31 2 0
BITMAP
FC001F80
FC001F80
FC001F80
FC001F80
FC001F80
FC001F80
FC001F80
FC001F80
FC001F80
FC001F80
FC001F80
FC001F80
FFFFFF80
FFFFFF80
FFFFFF80
FFFFFF80
FFFFFF80
FFFFFF80
FC001F80
FC001F80
FC001F80
FC001F80
FC001F80
FC001F80
FC001F80
FC001F80
FC001F80
FC001F80
FC001F80
FC001F80
FC001F80
ENDCHAR
STARTCHAR 105
ENCODING 105
SWIDTH 720 0
DWIDTH 10 0
BBX 6 31 2 0
BITMAP
FC
FC
FC
FC
FC
FC
FC
FC
FC
FC
FC
FC
FC
FC
FC
FC
FC
FC
FC
FC
FC
FC
FC
FC
FC
FC
FC
FC
FC
FC
FC
ENDCHAR
STARTCHAR 106
ENCODING 106
SWIDTH 1800 0
DWIDTH 25 0
BBX 21 31 2 0
BITMAP
0001F8
0001F8
0001F8
0001F8
0001F8
0001F8
0001F8
0001F8
0001F8
0001F8
0001F8
0001F8
0001F8
0001F8
0001F8
0001F8
0001F8
0001F8
0001F8
0001F8
0001F8
FC01F8
FC01F8
FC01F8
FC01F8
FFFFF8
FFFFF8
FFFFF8
FFFFF8
FFFFF8
FFFFF8
ENDCHAR
STARTCHAR 107
ENCODING 107
SWIDTH 2088 0
DWIDTH 29 0
BBX 25 31 2 0
BITMAP
FC001F80
FC001F80
FC001F80
FC001F80
FC001F80
FC001F80
FC001F80
FC001F80
FC001F80
FC001F80
FC001F80
FC001F80
FFFFE000
FFFFE000
FFFFE000
FFFFE000
FFFFE000
FFFFE000
FC001F80
FC001F80
FC001F80
FC001F80
FC001F80
FC001F80
FC001F80
FC001F80
FC001F80
FC001F80
FC001F80
FC001F80
FC001F80
ENDCHAR
STARTCHAR 108
ENCODING 108
SWIDTH 1800 0
DWIDTH 25 0
BBX 21 31 2 0
BITMAP
FC0000
FC0000
FC0000
FC0000
FC0000
FC0000
FC0000
FC0000
FC0000
FC0000
FC0000
FC0000
FC0000
FC0000
FC0000
FC0000
FC0000
FC0000
FC0000
FC0000
FC0000
FC0000
FC0000
FC0000
FC0000
FFFFF8
FFFFF8
FFFFF8
FFFFF8
FFFFF8
FFFFF8
ENDCHAR
STARTCHAR 109
ENCODING 109
SWIDTH 2520 0
DWIDTH 35 0
BBX 31 31 2 0
BITMAP
FFFFFFFE
FFFFFFFE
FFFFFFFE
FFFFFFFE
FFFFFFFE
FFFFFFFE
FC0FE07E
FC0FE07E
FC0FE07E
FC0FE07E
FC0FE07E
FC0FE07E
FC0FE07E
FC0FE07E
FC0FE07E
FC0FE07E
FC0FE07E
FC0FE07E
FC0FE07E
FC0FE07E
FC0FE07E
FC0FE07E
FC0FE07E
FC0FE07E
FC0FE07E
FC0FE07E
FC0FE07E
FC0FE07E
FC0FE07E
FC0FE07E
FC0FE07E
ENDCHAR
STARTCHAR 110
ENCODING 110
SWIDTH 2088 0
DWIDTH 29 0
BBX 25 31 2 0
BITMAP
FFFFFF80
FFFFFF80
FFFFFF80
FFFFFF80
FFFFFF80
FFFFFF80
FC001F80
FC001F80
FC001F80
FC001F80
FC001F80
FC001F80
FC001F80
FC001F80
FC001F80
FC001F80
FC001F80
FC001F80
FC001F80
FC001F80
FC001F80
FC001F80
FC001F80
FC001F80
FC001F80
FC001F80
FC001F80
FC001F80
FC001F80
FC001F80
FC001F80
ENDCHAR
STARTCHAR 111
ENCODING 111
SWIDTH 2088 0
DWIDTH 29 0
BBX 25 31 2 0
BITMAP
FFFFFF80
FFFFFF80
FFFFFF80
FFFFFF80
FFFFFF80
FFFFFF80
FC001F80
FC001F80
FC001F80
FC001F80
FC001F80
FC001F80
FC001F80
FC001F80
FC001F80
FC001F80
FC001F80
FC001F80
FC001F80
FC001F80
FC001F80
FC001F80
FC001F80
FC001F80
FC001F80
FFFFFF80
FFFFFF80
FFFFFF80
FFFFFF80
FFFFFF80
FFFFFF80
ENDCHAR
STARTCHAR 112
ENCODING 112
SWIDTH 2088 0
DWIDTH 29 0
BBX 25 31 2 0
BITMAP
FFFFFF80
FFFFFF80
FFFFFF80
FFFFFF80
FFFFFF80
FFFFFF80
FC001F80
FC001F80
FC001F80
FC001F80
FC001F80
FC001F80
FFFFFF80
FFFFFF80
FFFFFF80
FFFFFF80
FFFFFF80
FFFFFF80
FC000000
FC000000
FC000000
FC000000
FC000000
FC000000
FC000000
FC000000
FC000000
FC000000
FC000000
FC000000
FC000000
ENDCHAR
STARTCHAR 113
ENCODING 113
SWIDTH 2088 0
DWIDTH 29 0
BBX 25 35 2 -4
BITMAP
FFFFFF80
FFFFFF80
FFFFFF80
FFFFFF80
FFFFFF80
FFFFFF80
FC001F80
FC001F80
FC001F80
FC001F80
FC001F80
FC001F80
FC001F80
FC001F80
FC001F80
FC001F80
FC001F80
FC001F80
FC001F80
FC001F80
FC001F80
FC001F80
FC001F80
FC001F80
FC001F80
FFFFFF80
FFFFFF80
FFFFFF80
FFFFFF80
FFFFFF80
FFFFFF80
000FE000
000FE000
000FE000
000FE000
ENDCHAR
STARTCHAR 114
ENCODING 114
SWIDTH 2088 0
DWIDTH 29 0
BBX 25 31 2 0
BITMAP
FFFFFF80
FFFFFF80
FFFFFF80
FFFFFF80
FFFFFF80
FFFFFF80
FC003F80
FC003F80
FC003F80
FC003F80
FC003F80
FC003F80
FFFFE000
FFFFE000
FFFFE000
FFFFE000
FFFFE000
FFFFE000
FC001F80
FC001F80
FC001F80
FC001F80
FC001F80
FC001F80
FC001F80
FC001F80
FC001F80
FC001F80
FC001F80
FC001F80
FC001F80
ENDCHAR
STARTCHAR 115
ENCODING 115
SWIDTH 2088 0
DWIDTH 29 0
BBX 25 31 2 0
BITMAP
FFFFFF80
FFFFFF80
FFFFFF80
FFFFFF80
FFFFFF80
FFFFFF80
FC000000
FC000000
FC000000
FC000000
FC000000
FC000000
FFFFFF80
FFFFFF80
FFFFFF80
FFFFFF80
FFFFFF80
FFFFFF80
00001F80
00001F80
00001F80
00001F80
00001F80
00001F80
00001F80
FFFFFF80
FFFFFF80
FFFFFF80
FFFFFF80
FFFFFF80
FFFFFF80
ENDCHAR
STARTCHAR 116
ENCODING 116
SWIDTH 2016 0
DWIDTH 28 0
BBX 24 31 2 0
BITMAP
FFFFFF
FFFFFF
FFFFFF
FFFFFF
FFFFFF
FFFFFF
007E00
007E00
007E00
007E00
007E00
007E00
007E00
007E00
007E00
007E00
007E00
007E00
007E00
007E00
007E00
007E00
007E00
007E00
007E00
007E00
007E00
007E00
007E00
007E00
007E00
ENDCHAR
STARTCHAR 117
ENCODING 117
SWIDTH 2088 0
DWIDTH 29 0
BBX 25 31 2 0
BITMAP
FC001F80
FC001F80
FC001F80
FC001F80
FC001F80
FC001F80
FC001F80
FC001F80
FC001F80
FC001F80
FC001F80
FC001F80
FC001F80
FC001F80
FC001F80
FC001F80
FC001F80
FC001F80
FC001F80
FC001F80
FC001F80
FC001F80
FC001F80
FC001F80
FC001F80
FFFFFF80
FFFFFF80
FFFFFF80
FFFFFF80
FFFFFF80
FFFFFF80
ENDCHAR
STARTCHAR 118
ENCODING 118
SWIDTH 2088 0
DWIDTH 29 0
BBX 25 31 2 0
BITMAP
FC001F80
FC001F80
FC001F80
FC001F80
FC001F80
FC001F80
FC001F80
FC001F80
FC001F80
FC001F80
FC001F80
FC001F80
FC001F80
FC001F80
FC001F80
FC001F80
FC001F80
FC001F80
FC001F80
FC001F80
FC001F80
FC001F80
FC001F80
FC001F80
FC001F80
03FFE000
03FFE000
03FFE000
03FFE000
03FFE000
03FFE000
ENDCHAR
STARTCHAR 119
ENCODING 119
SWIDTH 2520 0
DWIDTH 35 0
BBX 31 31 2 0
BITMAP
FC0FE07E
FC0FE07E
FC0FE07E
FC0FE07E
FC0FE07E
FC0FE07E
FC0FE07E
FC0FE07E
FC0FE07E
FC0FE07E
FC0FE07E
FC0FE07E
FC0FE07E
FC0FE07E
FC0FE07E
FC0FE07E
FC0FE07E
FC0FE07E
FC0FE07E
FC0FE07E
FC0FE07E
FC0FE07E
FC0FE07E
FC0FE07E
FC0FE07E
03F01F80
03F01F80
03F01F80
03F01F80
03F01F80
03F01F80
ENDCHAR
STARTCHAR 120
ENCODING 120
SWIDTH 2088 0
DWIDTH 29 0
BBX 25 31 2 0
BITMAP
FC001F80
FC001F80
FC001F80
FC001F80
FC001F80
FC001F80
FC001F80
FC001F80
FC001F80
FC001F80
FC001F80
FC001F80
03FFE000
03FFE000
03FFE000
03FFE000
03FFE000
03FFE000
FC001F80
FC001F80
FC001F80
FC001F80
FC001F80
FC001F80
FC001F80
FC001F80
FC001F80
FC001F80
FC001F80
FC001F80
FC001F80
ENDCHAR
STARTCHAR 121
ENCODING 121
SWIDTH 2088 0
DWIDTH 29 0
BBX 25 31 2 0
BITMAP
FC001F80
FC001F80
FC001F80
FC001F80
FC001F80
FC001F80
FC001F80
FC001F80
FC001F80
FC001F80
FC001F80
FC001F80
FFFFFF80
FFFFFF80
FFFFFF80
FFFFFF80
FFFFFF80
FFFFFF80
00001F80
00001F80
00001F80
00001F80
00001F80
00001F80
00001F80
FFFFFF80
FFFFFF80
FFFFFF80
FFFFFF80
FFFFFF80
FFFFFF80
ENDCHAR
STARTCHAR 122
ENCODING 122
SWIDTH 2088 0
DWIDTH 29 0
BBX 25 31 2 0
BITMAP
FFFFFF80
FFFFFF80
FFFFFF80
FFFFFF80
FFFFFF80
FFFFFF80
00001F80
00001F80
00001F80
00001F80
00001F80
00001F80
03FFE000
03FFE000
03FFE000
03FFE000
03FFE000
03FFE000
FC000000
FC000000
FC000000
FC000000
FC000000
FC000000
FC000000
FFFFFF80
FFFFFF80
FFFFFF80
FFFFFF80
FFFFFF80
FFFFFF80
ENDCHAR
STARTCHAR 123
ENCODING 123
SWIDTH 1656 0
DWIDTH 23 0
BBX 18 36 2 -4
BITMAP
000FC0
000FC0
000FC0
000FC0
000FC0
000FC0
03F000
03F000
03F000
03F000
03F000
03F000
03F000
03F000
03F000
FC0000
FC0000
FC0000
FC0000
FC0000
FC0000
03F000
03F000
03F000
03F000
03F000
03F000
03F000
03F000
03F000
000FC0
000FC0
000FC0
000FC0
000FC0
000FC0
ENDCHAR
STARTCHAR 124
ENCODING 124
SWIDTH 720 0
DWIDTH 10 0
BBX 6 35 2 -4
BITMAP
FC
FC
FC
FC
FC
FC
FC
FC
FC
FC
FC
FC
FC
FC
FC
FC
FC
FC
FC
FC
FC
FC
FC
FC
FC
FC
FC
FC
FC
FC
FC
FC
FC
FC
FC
ENDCHAR
STARTCHAR 125
ENCODING 125
SWIDTH 1656 0
DWIDTH 23 0
BBX 18 36 3 -4
BITMAP
FC0000
FC0000
FC0000
FC0000
FC0000
FC0000
03F000
03F000
03F000
03F000
03F000
03F000
03F000
03F000
03F000
000FC0
000FC0
000FC0
000FC0
000FC0
000FC0
03F000
03F000
03F000
03F000
03F000
03F000
03F000
03F000
03F000
FC0000
FC0000
FC0000
FC0000
FC0000
FC0000
ENDCHAR
STARTCHAR 126
ENCODING 126
SWIDTH 2016 0
DWIDTH 28 0
BBX 24 12 2 13
BITMAP
03F03F
03F03F
03F03F
03F03F
03F03F
03F03F
FC0FC0
FC0FC0
FC0FC0
FC0FC0
FC0FC0
FC0FC0
ENDCHAR
STARTCHAR 127
ENCODING 127
SWIDTH 72 0
DWIDTH 1 0
BBX 0 0 0 0
BITMAP
ENDCHAR
STARTCHAR 128
ENCODING 128
SWIDTH 72 0
DWIDTH 1 0
BBX 0 0 0 0
BITMAP
ENDCHAR
STARTCHAR 129
ENCODING 129
SWIDTH 72 0
DWIDTH 1 0
BBX 0 0 0 0
BITMAP
ENDCHAR
STARTCHAR 130
ENCODING 130
SWIDTH 72 0
DWIDTH 1 0
BBX 0 0 0 0
BITMAP
ENDCHAR
STARTCHAR 131
ENCODING 131
SWIDTH 72 0
DWIDTH 1 0
BBX 0 0 0 0
BITMAP
ENDCHAR
STARTCHAR 132
ENCODING 132
SWIDTH 72 0
DWIDTH 1 0
BBX 0 0 0 0
BITMAP
ENDCHAR
STARTCHAR 133
ENCODING 133
SWIDTH 72 0
DWIDTH 1 0
BBX 0 0 0 0
BITMAP
ENDCHAR
STARTCHAR 134
ENCODING 134
SWIDTH 72 0
DWIDTH 1 0
BBX 0 0 0 0
BITMAP
ENDCHAR
STARTCHAR 135
ENCODING 135
SWIDTH 72 0
DWIDTH 1 0
BBX 0 0 0 0
BITMAP
ENDCHAR
STARTCHAR 136
ENCODING 136
SWIDTH 72 0
DWIDTH 1 0
BBX 0 0 0 0
BITMAP
ENDCHAR
STARTCHAR 137
ENCODING 137
SWIDTH 72 0
DWIDTH 1 0
BBX 0 0 0 0
BITMAP
ENDCHAR
STARTCHAR 138
ENCODING 138
SWIDTH 72 0
DWIDTH 1 0
BBX 0 0 0 0
BITMAP
ENDCHAR
STARTCHAR 139
ENCODING 139
SWIDTH 72 0
DWIDTH 1 0
BBX 0 0 0 0
BITMAP
ENDCHAR
STARTCHAR 140
ENCODING 140
SWIDTH 72 0
DWIDTH 1 0
BBX 0 0 0 0
BITMAP
ENDCHAR
STARTCHAR 141
ENCODING 141
SWIDTH 72 0
DWIDTH 1 0
BBX 0 0 0 0
BITMAP
ENDCHAR
STARTCHAR 142
ENCODING 142
SWIDTH 72 0
DWIDTH 1 0
BBX 0 0 0 0
BITMAP
ENDCHAR
STARTCHAR 143
ENCODING 143
SWIDTH 72 0
DWIDTH 1 0
BBX 0 0 0 0
BITMAP
ENDCHAR
STARTCHAR 144
ENCODING 144
SWIDTH 72 0
DWIDTH 1 0
BBX 0 0 0 0
BITMAP
ENDCHAR
STARTCHAR 145
ENCODING 145
SWIDTH 72 0
DWIDTH 1 0
BBX 0 0 0 0
BITMAP
ENDCHAR
STARTCHAR 146
ENCODING 146
SWIDTH 72 0
DWIDTH 1 0
BBX 0 0 0 0
BITMAP
ENDCHAR
STARTCHAR 147
ENCODING 147
SWIDTH 72 0
DWIDTH 1 0
BBX 0 0 0 0
BITMAP
ENDCHAR
STARTCHAR 148
ENCODING 148
SWIDTH 72 0
DWIDTH 1 0
BBX 0 0 0 0
BITMAP
ENDCHAR
STARTCHAR 149
ENCODING 149
SWIDTH 72 0
DWIDTH 1 0
BBX 0 0 0 0
BITMAP
ENDCHAR
STARTCHAR 150
ENCODING 150
SWIDTH 72 0
DWIDTH 1 0
BBX 0 0 0 0
BITMAP
ENDCHAR
STARTCHAR 151
ENCODING 151
SWIDTH 72 0
DWIDTH 1 0
BBX 0 0 0 0
BITMAP
ENDCHAR
STARTCHAR 152
ENCODING 152
SWIDTH 72 0
DWIDTH 1 0
BBX 0 0 0 0
BITMAP
ENDCHAR
STARTCHAR 153
ENCODING 153
SWIDTH 72 0
DWIDTH 1 0
BBX 0 0 0 0
BITMAP
ENDCHAR
STARTCHAR 154
ENCODING 154
SWIDTH 72 0
DWIDTH 1 0
BBX 0 0 0 0
BITMAP
ENDCHAR
STARTCHAR 155
ENCODING 155
SWIDTH 72 0
DWIDTH 1 0
BBX 0 0 0 0
BITMAP
ENDCHAR
STARTCHAR 156
ENCODING 156
SWIDTH 72 0
DWIDTH 1 0
BBX 0 0 0 0
BITMAP
ENDCHAR
STARTCHAR 157
ENCODING 157
SWIDTH 72 0
DWIDTH 1 0
BBX 0 0 0 0
BITMAP
ENDCHAR
STARTCHAR 158
ENCODING 158
SWIDTH 72 0
DWIDTH 1 0
BBX 0 0 0 0
BITMAP
ENDCHAR
STARTCHAR 159
ENCODING 159
SWIDTH 72 0
DWIDTH 1 0
BBX 0 0 0 0
BITMAP
ENDCHAR
STARTCHAR 160
ENCODING 160
SWIDTH 432 0
DWIDTH 6 0
BBX 0 0 0 0
BITMAP
ENDCHAR
STARTCHAR 161
ENCODING 161
SWIDTH 720 0
DWIDTH 10 0
BBX 6 31 2 0
BITMAP
FC
FC
FC
FC
FC
FC
00
00
00
00
00
00
FC
FC
FC
FC
FC
FC
FC
FC
FC
FC
FC
FC
FC
FC
FC
FC
FC
FC
FC
ENDCHAR
STARTCHAR 162
ENCODING 162
SWIDTH 1656 0
DWIDTH 23 0
BBX 19 37 2 -4
BITMAP
03F800
03F800
03F800
03F800
03F800
03F800
FFFFE0
FFFFE0
FFFFE0
FFFFE0
FFFFE0
FFFFE0
FC0000
FC0000
FC0000
FC0000
FC0000
FC0000
FC0000
FC0000
FC0000
FC0000
FC0000
FC0000
FC0000
FFFFE0
FFFFE0
FFFFE0
FFFFE0
FFFFE0
FFFFE0
03F800
03F800
03F800
03F800
03F800
03F800
ENDCHAR
STARTCHAR 163
ENCODING 163
SWIDTH 2088 0
DWIDTH 29 0
BBX 25 31 2 0
BITMAP
FFFFE000
FFFFE000
FFFFE000
FFFFE000
FFFFE000
FFFFE000
FC000000
FC000000
FC000000
FC000000
FC000000
FC000000
FFF80000
FFF80000
FFF80000
FFF80000
FFF80000
FFF80000
FC001F80
FC001F80
FC001F80
FC001F80
FC001F80
FC001F80
FC001F80
FFFFFF80
FFFFFF80
FFFFFF80
FFFFFF80
FFFFFF80
FFFFFF80
ENDCHAR
STARTCHAR 164
ENCODING 164
SWIDTH 72 0
DWIDTH 1 0
BBX 0 0 0 0
BITMAP
ENDCHAR
STARTCHAR 165
ENCODING 165
SWIDTH 2592 0
DWIDTH 36 0
BBX 31 31 2 0
BITMAP
FC00007E
FC00007E
FC00007E
FC00007E
FC00007E
FC00007E
03F81F80
03F81F80
03F81F80
03F81F80
03F81F80
03F81F80
000FE000
000FE000
000FE000
000FE000
000FE000
000FE000
000FE000
03FFFF80
03FFFF80
03FFFF80
03FFFF80
03FFFF80
03FFFF80
000FE000
000FE000
000FE000
000FE000
000FE000
000FE000
ENDCHAR
STARTCHAR 166
ENCODING 166
SWIDTH 72 0
DWIDTH 1 0
BBX 0 0 0 0
BITMAP
ENDCHAR
STARTCHAR 167
ENCODING 167
SWIDTH 1584 0
DWIDTH 22 0
BBX 18 37 2 -4
BITMAP
FFFFC0
FFFFC0
FC0000
FC0000
FC0000
FC0000
FC0000
FC0000
FFFFC0
FFFFC0
FFFFC0
FFFFC0
FFFFC0
FFFFC0
FC0FC0
FC0FC0
FC0FC0
FC0FC0
FC0FC0
FC0FC0
FFFFC0
FFFFC0
FFFFC0
FFFFC0
FFFFC0
FFFFC0
000FC0
000FC0
000FC0
000FC0
000FC0
000FC0
FFFFC0
FFFFC0
FFFFC0
FFFFC0
FFFFC0
ENDCHAR
STARTCHAR 168
ENCODING 168
SWIDTH 1584 0
DWIDTH 22 0
BBX 18 6 2 25
BITMAP
FC0FC0
FC0FC0
FC0FC0
FC0FC0
FC0FC0
FC0FC0
ENDCHAR
STARTCHAR 169
ENCODING 169
SWIDTH 2088 0
DWIDTH 29 0
BBX 25 31 2 0
BITMAP
FFFFFF80
FFFFFF80
FFFFFF80
FFFFFF80
FFFFFF80
FFFFFF80
FC001F80
FC001F80
FC001F80
FC001F80
FC001F80
FC001F80
FC0FFF80
FC0FFF80
FC0FFF80
FC0FFF80
FC0FFF80
FC0FFF80
FC001F80
FC001F80
FC001F80
FC001F80
FC001F80
FC001F80
FC001F80
FFFFFF80
FFFFFF80
FFFFFF80
FFFFFF80
FFFFFF80
FFFFFF80
ENDCHAR
STARTCHAR 170
ENCODING 170
SWIDTH 1656 0
DWIDTH 23 0
BBX 19 31 2 0
BITMAP
FFFFE0
FFFFE0
FFFFE0
FFFFE0
FFFFE0
FFFFE0
FC0FE0
FC0FE0
FC0FE0
FC0FE0
FC0FE0
FC0FE0
FFFFE0
FFFFE0
FFFFE0
FFFFE0
FFFFE0
FFFFE0
000000
000000
000000
000000
000000
000000
000000
FFFFE0
FFFFE0
FFFFE0
FFFFE0
FFFFE0
FFFFE0
ENDCHAR
STARTCHAR 171
ENCODING 171
SWIDTH 2520 0
DWIDTH 35 0
BBX 31 19 2 6
BITMAP
03F8007E
03F8007E
03F8007E
03F8007E
03F8007E
03F8007E
FC001F80
FC001F80
FC001F80
FC001F80
FC001F80
FC001F80
FC001F80
03F8007E
03F8007E
03F8007E
03F8007E
03F8007E
03F8007E
ENDCHAR
STARTCHAR 172
ENCODING 172
SWIDTH 2520 0
DWIDTH 35 0
BBX 31 31 2 0
BITMAP
000FE000
000FE000
000FE000
000FE000
000FE000
000FE000
00001F80
00001F80
00001F80
00001F80
00001F80
00001F80
FFFFFFFE
FFFFFFFE
FFFFFFFE
FFFFFFFE
FFFFFFFE
FFFFFFFE
00001F80
00001F80
00001F80
00001F80
00001F80
00001F80
00001F80
000FE000
000FE000
000FE000
000FE000
000FE000
000FE000
ENDCHAR
STARTCHAR 173
ENCODING 173
SWIDTH 1656 0
DWIDTH 23 0
BBX 19 6 2 13
BITMAP
FFFFE0
FFFFE0
FFFFE0
FFFFE0
FFFFE0
FFFFE0
ENDCHAR
STARTCHAR 174
ENCODING 174
SWIDTH 2088 0
DWIDTH 29 0
BBX 25 31 2 0
BITMAP
FFFFFF80
FFFFFF80
FFFFFF80
FFFFFF80
FFFFFF80
FFFFFF80
FC001F80
FC001F80
FC001F80
FC001F80
FC001F80
FC001F80
FC0FFF80
FC0FFF80
FC0FFF80
FC0FFF80
FC0FFF80
FC0FFF80
FC0FFF80
FC0FFF80
FC0FFF80
FC0FFF80
FC0FFF80
FC0FFF80
FC0FFF80
FFFFFF80
FFFFFF80
FFFFFF80
FFFFFF80
FFFFFF80
FFFFFF80
ENDCHAR
STARTCHAR 175
ENCODING 175
SWIDTH 72 0
DWIDTH 1 0
BBX 0 0 0 0
BITMAP
ENDCHAR
STARTCHAR 176
ENCODING 176
SWIDTH 1584 0
DWIDTH 22 0
BBX 18 18 2 13
BITMAP
FFFFC0
FFFFC0
FFFFC0
FFFFC0
FFFFC0
FFFFC0
FC0FC0
FC0FC0
FC0FC0
FC0FC0
FC0FC0
FC0FC0
FFFFC0
FFFFC0
FFFFC0
FFFFC0
FFFFC0
FFFFC0
ENDCHAR
STARTCHAR 177
ENCODING 177
SWIDTH 1656 0
DWIDTH 23 0
BBX 19 25 2 0
BITMAP
03F800
03F800
03F800
03F800
03F800
03F800
FFFFE0
FFFFE0
FFFFE0
FFFFE0
FFFFE0
FFFFE0
03F800
03F800
03F800
03F800
03F800
03F800
03F800
FFFFE0
FFFFE0
FFFFE0
FFFFE0
FFFFE0
FFFFE0
ENDCHAR
STARTCHAR 178
ENCODING 178
SWIDTH 72 0
DWIDTH 1 0
BBX 0 0 0 0
BITMAP
ENDCHAR
STARTCHAR 179
ENCODING 179
SWIDTH 72 0
DWIDTH 1 0
BBX 0 0 0 0
BITMAP
ENDCHAR
STARTCHAR 180
ENCODING 180
SWIDTH 1152 0
DWIDTH 16 0
BBX 12 12 2 19
BITMAP
03F0
03F0
03F0
03F0
03F0
03F0
FC00
FC00
FC00
FC00
FC00
FC00
ENDCHAR
STARTCHAR 181
ENCODING 181
SWIDTH 5400 0
DWIDTH 75 0
BBX 69 37 2 -4
BITMAP
00FFFFFFFFFFFFFFF8
00FFFFFFFFFFFFFFF8
00FFFFFFFFFFFFFFF8
00FFFFFFFFFFFFFFF8
00F80000000000FFF8
00F80000000000FFF8
00F80000000000FFF8
00F80000000000FFF8
000FE00000003F83F8
000FE00000003F83F8
000FE00000003F83F8
000FE00000003F83F8
000FE00000003F83F8
000FE00000003F83F8
00001FFFFFFFC003F8
00001FFFFFFFC003F8
00001FFFFFFFC003F8
00001FFFFFFFC003F8
00001FFFFFFFC003F8
00001FFFFFFFC003F8
0000000000000003F8
0000000000000003F8
0000000000000003F8
0000000000000003F8
0000000000000003F8
0000000000000003F8
0000000000000003F8
0000000000000003F8
0000000000000003F8
0000000000000003F8
0000000000000003F8
0000000000000003F8
0000000000000003F8
00FFFFFFFFFFFFFFF8
00FFFFFFFFFFFFFFF8
00FFFFFFFFFFFFFFF8
00FFFFFFFFFFFFFFF8
ENDCHAR
STARTCHAR 182
ENCODING 182
SWIDTH 2520 0
DWIDTH 35 0
BBX 31 31 2 0
BITMAP
FFFFFFFE
FFFFFFFE
FFFFFFFE
FFFFFFFE
FFFFFFFE
FFFFFFFE
FC0FE07E
FC0FE07E
FC0FE07E
FC0FE07E
FC0FE07E
FC0FE07E
FFFFE07E
FFFFE07E
FFFFE07E
FFFFE07E
FFFFE07E
FFFFE07E
000FE07E
000FE07E
000FE07E
000FE07E
000FE07E
000FE07E
000FE07E
000FE07E
000FE07E
000FE07E
000FE07E
000FE07E
000FE07E
ENDCHAR
STARTCHAR 183
ENCODING 183
SWIDTH 720 0
DWIDTH 10 0
BBX 6 6 2 13
BITMAP
FC
FC
FC
FC
FC
FC
ENDCHAR
STARTCHAR 184
ENCODING 184
SWIDTH 72 0
DWIDTH 1 0
BBX 0 0 0 0
BITMAP
ENDCHAR
STARTCHAR 185
ENCODING 185
SWIDTH 72 0
DWIDTH 1 0
BBX 0 0 0 0
BITMAP
ENDCHAR
STARTCHAR 186
ENCODING 186
SWIDTH 1656 0
DWIDTH 23 0
BBX 19 31 2 0
BITMAP
FFFFE0
FFFFE0
FFFFE0
FFFFE0
FFFFE0
FFFFE0
FC0FE0
FC0FE0
FC0FE0
FC0FE0
FC0FE0
FC0FE0
FFFFE0
FFFFE0
FFFFE0
FFFFE0
FFFFE0
FFFFE0
000000
000000
000000
000000
000000
000000
000000
FFFFE0
FFFFE0
FFFFE0
FFFFE0
FFFFE0
FFFFE0
ENDCHAR
STARTCHAR 187
ENCODING 187
SWIDTH 2520 0
DWIDTH 35 0
BBX 31 19 2 6
BITMAP
FC003F80
FC003F80
FC003F80
FC003F80
FC003F80
FC003F80
03F0007E
03F0007E
03F0007E
03F0007E
03F0007E
03F0007E
03F0007E
FC003F80
FC003F80
FC003F80
FC003F80
FC003F80
FC003F80
ENDCHAR
STARTCHAR 188
ENCODING 188
SWIDTH 72 0
DWIDTH 1 0
BBX 0 0 0 0
BITMAP
ENDCHAR
STARTCHAR 189
ENCODING 189
SWIDTH 72 0
DWIDTH 1 0
BBX 0 0 0 0
BITMAP
ENDCHAR
STARTCHAR 190
ENCODING 190
SWIDTH 72 0
DWIDTH 1 0
BBX 0 0 0 0
BITMAP
ENDCHAR
STARTCHAR 191
ENCODING 191
SWIDTH 2088 0
DWIDTH 29 0
BBX 25 31 2 0
BITMAP
000FE000
000FE000
000FE000
000FE000
000FE000
000FE000
00000000
00000000
00000000
00000000
00000000
00000000
FFFFE000
FFFFE000
FFFFE000
FFFFE000
FFFFE000
FFFFE000
FC000000
FC000000
FC000000
FC000000
FC000000
FC000000
FC000000
FFFFFF80
FFFFFF80
FFFFFF80
FFFFFF80
FFFFFF80
FFFFFF80
ENDCHAR
STARTCHAR 192
ENCODING 192
SWIDTH 2088 0
DWIDTH 29 0
BBX 25 31 2 0
BITMAP
FFFFFF80
FFFFFF80
FFFFFF80
FFFFFF80
FFFFFF80
FFFFFF80
FC001F80
FC001F80
FC001F80
FC001F80
FC001F80
FC001F80
FFFFFF80
FFFFFF80
FFFFFF80
FFFFFF80
FFFFFF80
FFFFFF80
FC001F80
FC001F80
FC001F80
FC001F80
FC001F80
FC001F80
FC001F80
FC001F80
FC001F80
FC001F80
FC001F80
FC001F80
FC001F80
ENDCHAR
STARTCHAR 193
ENCODING 193
SWIDTH 2088 0
DWIDTH 29 0
BBX 25 31 2 0
BITMAP
FFFFFF80
FFFFFF80
FFFFFF80
FFFFFF80
FFFFFF80
FFFFFF80
FC000000
FC000000
FC000000
FC000000
FC000000
FC000000
FFFFE000
FFFFE000
FFFFE000
FFFFE000
FFFFE000
FFFFE000
FC001F80
FC001F80
FC001F80
FC001F80
FC001F80
FC001F80
FC001F80
FFFFFF80
FFFFFF80
FFFFFF80
FFFFFF80
FFFFFF80
FFFFFF80
ENDCHAR
STARTCHAR 194
ENCODING 194
SWIDTH 2088 0
DWIDTH 29 0
BBX 25 31 2 0
BITMAP
FFFFFF80
FFFFFF80
FFFFFF80
FFFFFF80
FFFFFF80
FFFFFF80
FC003F80
FC003F80
FC003F80
FC003F80
FC003F80
FC003F80
FFFFE000
FFFFE000
FFFFE000
FFFFE000
FFFFE000
FFFFE000
FC003F80
FC003F80
FC003F80
FC003F80
FC003F80
FC003F80
FC003F80
FFFFFF80
FFFFFF80
FFFFFF80
FFFFFF80
FFFFFF80
FFFFFF80
ENDCHAR
STARTCHAR 195
ENCODING 195
SWIDTH 1800 0
DWIDTH 25 0
BBX 21 31 2 0
BITMAP
FFFFF8
FFFFF8
FFFFF8
FFFFF8
FFFFF8
FFFFF8
FC0000
FC0000
FC0000
FC0000
FC0000
FC0000
FC0000
FC0000
FC0000
FC0000
FC0000
FC0000
FC0000
FC0000
FC0000
FC0000
FC0000
FC0000
FC0000
FC0000
FC0000
FC0000
FC0000
FC0000
FC0000
ENDCHAR
STARTCHAR 196
ENCODING 196
SWIDTH 2520 0
DWIDTH 35 0
BBX 31 31 2 0
BITMAP
007FFFF0
007FFFF0
007FFFF0
007FFFF0
007FFFF0
007FFFF0
1FC003F0
1FC003F0
1FC003F0
1FC003F0
1FC003F0
1FC003F0
1FC003F0
1FC003F0
1FC003F0
1FC003F0
1FC003F0
1FC003F0
1FC003F0
1FC003F0
1FC003F0
1FC003F0
1FC003F0
1FC003F0
1FC003F0
FFFFFFFE
FFFFFFFE
FFFFFFFE
FFFFFFFE
FFFFFFFE
FFFFFFFE
ENDCHAR
STARTCHAR 197
ENCODING 197
SWIDTH 2088 0
DWIDTH 29 0
BBX 25 31 2 0
BITMAP
FFFFFF80
FFFFFF80
FFFFFF80
FFFFFF80
FFFFFF80
FFFFFF80
FC000000
FC000000
FC000000
FC000000
FC000000
FC000000
FFFFE000
FFFFE000
FFFFE000
FFFFE000
FFFFE000
FFFFE000
FC000000
FC000000
FC000000
FC000000
FC000000
FC000000
FC000000
FFFFFF80
FFFFFF80
FFFFFF80
FFFFFF80
FFFFFF80
FFFFFF80
ENDCHAR
STARTCHAR 198
ENCODING 198
SWIDTH 2520 0
DWIDTH 35 0
BBX 31 31 2 0
BITMAP
FC0FE07E
FC0FE07E
FC0FE07E
FC0FE07E
FC0FE07E
FC0FE07E
FC0FE07E
FC0FE07E
FC0FE07E
FC0FE07E
FC0FE07E
FC0FE07E
03FFFF80
03FFFF80
03FFFF80
03FFFF80
03FFFF80
03FFFF80
FC0FE07E
FC0FE07E
FC0FE07E
FC0FE07E
FC0FE07E
FC0FE07E
FC0FE07E
FC0FE07E
FC0FE07E
FC0FE07E
FC0FE07E
FC0FE07E
FC0FE07E
ENDCHAR
STARTCHAR 199
ENCODING 199
SWIDTH 2088 0
DWIDTH 29 0
BBX 25 31 2 0
BITMAP
FFFFFF80
FFFFFF80
FFFFFF80
FFFFFF80
FFFFFF80
FFFFFF80
00001F80
00001F80
00001F80
00001F80
00001F80
00001F80
03FFFF80
03FFFF80
03FFFF80
03FFFF80
03FFFF80
03FFFF80
00001F80
00001F80
00001F80
00001F80
00001F80
00001F80
00001F80
FFFFFF80
FFFFFF80
FFFFFF80
FFFFFF80
FFFFFF80
FFFFFF80
ENDCHAR
STARTCHAR 200
ENCODING 200
SWIDTH 2088 0
DWIDTH 29 0
BBX 25 31 2 0
BITMAP
FC001F80
FC001F80
FC001F80
FC001F80
FC001F80
FC001F80
FC001F80
FC001F80
FC001F80
FC001F80
FC001F80
FC001F80
FC001F80
FC001F80
FC001F80
FC001F80
FC001F80
FC001F80
FC001F80
FC001F80
FC001F80
FC001F80
FC001F80
FC001F80
FC001F80
03FFFF80
03FFFF80
03FFFF80
03FFFF80
03FFFF80
03FFFF80
ENDCHAR
STARTCHAR 201
ENCODING 201
SWIDTH 2088 0
DWIDTH 29 0
BBX 25 31 2 0
BITMAP
FC001F80
FC001F80
FC001F80
FC001F80
FC001F80
FC001F80
FC001F80
FC001F80
FC001F80
FC001F80
FC001F80
FC001F80
FC001F80
FC001F80
FC001F80
FC001F80
FC001F80
FC001F80
FC001F80
FC001F80
FC001F80
FC001F80
FC001F80
FC001F80
FC001F80
03FFFF80
03FFFF80
03FFFF80
03FFFF80
03FFFF80
03FFFF80
ENDCHAR
STARTCHAR 202
ENCODING 202
SWIDTH 2088 0
DWIDTH 29 0
BBX 25 31 2 0
BITMAP
FC001F80
FC001F80
FC001F80
FC001F80
FC001F80
FC001F80
FC001F80
FC001F80
FC001F80
FC001F80
FC001F80
FC001F80
FFFFE000
FFFFE000
FFFFE000
FFFFE000
FFFFE000
FFFFE000
FC001F80
FC001F80
FC001F80
FC001F80
FC001F80
FC001F80
FC001F80
FC001F80
FC001F80
FC001F80
FC001F80
FC001F80
FC001F80
ENDCHAR
STARTCHAR 203
ENCODING 203
SWIDTH 2088 0
DWIDTH 29 0
BBX 25 31 2 0
BITMAP
03FFFF80
03FFFF80
03FFFF80
03FFFF80
03FFFF80
03FFFF80
FC001F80
FC001F80
FC001F80
FC001F80
FC001F80
FC001F80
FC001F80
FC001F80
FC001F80
FC001F80
FC001F80
FC001F80
FC001F80
FC001F80
FC001F80
FC001F80
FC001F80
FC001F80
FC001F80
FC001F80
FC001F80
FC001F80
FC001F80
FC001F80
FC001F80
ENDCHAR
STARTCHAR 204
ENCODING 204
SWIDTH 2520 0
DWIDTH 35 0
BBX 31 31 2 0
BITMAP
FC00007E
FC00007E
FC00007E
FC00007E
FC00007E
FC00007E
FFF81FFE
FFF81FFE
FFF81FFE
FFF81FFE
FFF81FFE
FFF81FFE
FC0FE07E
FC0FE07E
FC0FE07E
FC0FE07E
FC0FE07E
FC0FE07E
FC0FE07E
FC0FE07E
FC0FE07E
FC0FE07E
FC0FE07E
FC0FE07E
FC0FE07E
FC0FE07E
FC0FE07E
FC0FE07E
FC0FE07E
FC0FE07E
FC0FE07E
ENDCHAR
STARTCHAR 205
ENCODING 205
SWIDTH 2088 0
DWIDTH 29 0
BBX 25 31 2 0
BITMAP
FC001F80
FC001F80
FC001F80
FC001F80
FC001F80
FC001F80
FC001F80
FC001F80
FC001F80
FC001F80
FC001F80
FC001F80
FFFFFF80
FFFFFF80
FFFFFF80
FFFFFF80
FFFFFF80
FFFFFF80
FC001F80
FC001F80
FC001F80
FC001F80
FC001F80
FC001F80
FC001F80
FC001F80
FC001F80
FC001F80
FC001F80
FC001F80
FC001F80
ENDCHAR
STARTCHAR 206
ENCODING 206
SWIDTH 2088 0
DWIDTH 29 0
BBX 25 31 2 0
BITMAP
FFFFFF80
FFFFFF80
FFFFFF80
FFFFFF80
FFFFFF80
FFFFFF80
FC001F80
FC001F80
FC001F80
FC001F80
FC001F80
FC001F80
FC001F80
FC001F80
FC001F80
FC001F80
FC001F80
FC001F80
FC001F80
FC001F80
FC001F80
FC001F80
FC001F80
FC001F80
FC001F80
FFFFFF80
FFFFFF80
FFFFFF80
FFFFFF80
FFFFFF80
FFFFFF80
ENDCHAR
STARTCHAR 207
ENCODING 207
SWIDTH 2088 0
DWIDTH 29 0
BBX 25 31 2 0
BITMAP
FFFFFF80
FFFFFF80
FFFFFF80
FFFFFF80
FFFFFF80
FFFFFF80
FC001F80
FC001F80
FC001F80
FC001F80
FC001F80
FC001F80
FC001F80
FC001F80
FC001F80
FC001F80
FC001F80
FC001F80
FC001F80
FC001F80
FC001F80
FC001F80
FC001F80
FC001F80
FC001F80
FC001F80
FC001F80
FC001F80
FC001F80
FC001F80
FC001F80
ENDCHAR
STARTCHAR 208
ENCODING 208
SWIDTH 2088 0
DWIDTH 29 0
BBX 25 31 2 0
BITMAP
FFFFFF80
FFFFFF80
FFFFFF80
FFFFFF80
FFFFFF80
FFFFFF80
FC001F80
FC001F80
FC001F80
FC001F80
FC001F80
FC001F80
FFFFFF80
FFFFFF80
FFFFFF80
FFFFFF80
FFFFFF80
FFFFFF80
FC000000
FC000000
FC000000
FC000000
FC000000
FC000000
FC000000
FC000000
FC000000
FC000000
FC000000
FC000000
FC000000
ENDCHAR
STARTCHAR 209
ENCODING 209
SWIDTH 2088 0
DWIDTH 29 0
BBX 25 31 2 0
BITMAP
FFFFFF80
FFFFFF80
FFFFFF80
FFFFFF80
FFFFFF80
FFFFFF80
FC000000
FC000000
FC000000
FC000000
FC000000
FC000000
FC000000
FC000000
FC000000
FC000000
FC000000
FC000000
FC000000
FC000000
FC000000
FC000000
FC000000
FC000000
FC000000
FFFFFF80
FFFFFF80
FFFFFF80
FFFFFF80
FFFFFF80
FFFFFF80
ENDCHAR
STARTCHAR 210
ENCODING 210
SWIDTH 2016 0
DWIDTH 28 0
BBX 24 31 2 0
BITMAP
FFFFFF
FFFFFF
FFFFFF
FFFFFF
FFFFFF
FFFFFF
007E00
007E00
007E00
007E00
007E00
007E00
007E00
007E00
007E00
007E00
007E00
007E00
007E00
007E00
007E00
007E00
007E00
007E00
007E00
007E00
007E00
007E00
007E00
007E00
007E00
ENDCHAR
STARTCHAR 211
ENCODING 211
SWIDTH 2088 0
DWIDTH 29 0
BBX 25 31 2 0
BITMAP
FC001F80
FC001F80
FC001F80
FC001F80
FC001F80
FC001F80
FC001F80
FC001F80
FC001F80
FC001F80
FC001F80
FC001F80
FFFFFF80
FFFFFF80
FFFFFF80
FFFFFF80
FFFFFF80
FFFFFF80
00001F80
00001F80
00001F80
00001F80
00001F80
00001F80
00001F80
FFFFFF80
FFFFFF80
FFFFFF80
FFFFFF80
FFFFFF80
FFFFFF80
ENDCHAR
STARTCHAR 212
ENCODING 212
SWIDTH 2520 0
DWIDTH 35 0
BBX 31 31 2 0
BITMAP
000FE000
000FE000
000FE000
000FE000
000FE000
000FE000
FFFFFFFE
FFFFFFFE
FFFFFFFE
FFFFFFFE
FFFFFFFE
FFFFFFFE
FC0FE07E
FC0FE07E
FC0FE07E
FC0FE07E
FC0FE07E
FC0FE07E
FFFFFFFE
FFFFFFFE
FFFFFFFE
FFFFFFFE
FFFFFFFE
FFFFFFFE
000FE000
000FE000
000FE000
000FE000
000FE000
000FE000
000FE000
ENDCHAR
STARTCHAR 213
ENCODING 213
SWIDTH 2088 0
DWIDTH 29 0
BBX 25 31 2 0
BITMAP
FC001F80
FC001F80
FC001F80
FC001F80
FC001F80
FC001F80
FC001F80
FC001F80
FC001F80
FC001F80
FC001F80
FC001F80
03FFE000
03FFE000
03FFE000
03FFE000
03FFE000
03FFE000
FC001F80
FC001F80
FC001F80
FC001F80
FC001F80
FC001F80
FC001F80
FC001F80
FC001F80
FC001F80
FC001F80
FC001F80
FC001F80
ENDCHAR
STARTCHAR 214
ENCODING 214
SWIDTH 2304 0
DWIDTH 32 0
BBX 28 31 2 0
BITMAP
FC001F80
FC001F80
FC001F80
FC001F80
FC001F80
FC001F80
FC001F80
FC001F80
FC001F80
FC001F80
FC001F80
FC001F80
FC001F80
FC001F80
FC001F80
FC001F80
FC001F80
FC001F80
FC001F80
FC001F80
FC001F80
FC001F80
FC001F80
FC001F80
FC001F80
FFFFFFF0
FFFFFFF0
FFFFFFF0
FFFFFFF0
FFFFFFF0
FFFFFFF0
ENDCHAR
STARTCHAR 215
ENCODING 215
SWIDTH 2088 0
DWIDTH 29 0
BBX 25 31 2 0
BITMAP
FC001F80
FC001F80
FC001F80
FC001F80
FC001F80
FC001F80
FC001F80
FC001F80
FC001F80
FC001F80
FC001F80
FC001F80
FFFFFF80
FFFFFF80
FFFFFF80
FFFFFF80
FFFFFF80
FFFFFF80
00001F80
00001F80
00001F80
00001F80
00001F80
00001F80
00001F80
00001F80
00001F80
00001F80
00001F80
00001F80
00001F80
ENDCHAR
STARTCHAR 216
ENCODING 216
SWIDTH 2520 0
DWIDTH 35 0
BBX 31 31 2 0
BITMAP
FC0FE07E
FC0FE07E
FC0FE07E
FC0FE07E
FC0FE07E
FC0FE07E
FC0FE07E
FC0FE07E
FC0FE07E
FC0FE07E
FC0FE07E
FC0FE07E
FC0FE07E
FC0FE07E
FC0FE07E
FC0FE07E
FC0FE07E
FC0FE07E
FC0FE07E
FC0FE07E
FC0FE07E
FC0FE07E
FC0FE07E
FC0FE07E
FC0FE07E
FFFFFFFE
FFFFFFFE
FFFFFFFE
FFFFFFFE
FFFFFFFE
FFFFFFFE
ENDCHAR
STARTCHAR 217
ENCODING 217
SWIDTH 2736 0
DWIDTH 38 0
BBX 34 31 2 0
BITMAP
FC0FE07E00
FC0FE07E00
FC0FE07E00
FC0FE07E00
FC0FE07E00
FC0FE07E00
FC0FE07E00
FC0FE07E00
FC0FE07E00
FC0FE07E00
FC0FE07E00
FC0FE07E00
FC0FE07E00
FC0FE07E00
FC0FE07E00
FC0FE07E00
FC0FE07E00
FC0FE07E00
FC0FE07E00
FC0FE07E00
FC0FE07E00
FC0FE07E00
FC0FE07E00
FC0FE07E00
FC0FE07E00
FFFFFFFFC0
FFFFFFFFC0
FFFFFFFFC0
FFFFFFFFC0
FFFFFFFFC0
FFFFFFFFC0
ENDCHAR
STARTCHAR 218
ENCODING 218
SWIDTH 2304 0
DWIDTH 32 0
BBX 28 31 2 0
BITMAP
FF800000
FF800000
FF800000
FF800000
FF800000
FF800000
1F800000
1F800000
1F800000
1F800000
1F800000
1F800000
1FFFFFF0
1FFFFFF0
1FFFFFF0
1FFFFFF0
1FFFFFF0
1FFFFFF0
1F8003F0
1F8003F0
1F8003F0
1F8003F0
1F8003F0
1F8003F0
1F8003F0
1FFFFFF0
1FFFFFF0
1FFFFFF0
1FFFFFF0
1FFFFFF0
1FFFFFF0
ENDCHAR
STARTCHAR 219
ENCODING 219
SWIDTH 2664 0
DWIDTH 37 0
BBX 33 31 2 0
BITMAP
FC00001F80
FC00001F80
FC00001F80
FC00001F80
FC00001F80
FC00001F80
FC00001F80
FC00001F80
FC00001F80
FC00001F80
FC00001F80
FC00001F80
FFFFFF9F80
FFFFFF9F80
FFFFFF9F80
FFFFFF9F80
FFFFFF9F80
FFFFFF9F80
FC001F9F80
FC001F9F80
FC001F9F80
FC001F9F80
FC001F9F80
FC001F9F80
FC001F9F80
FFFFFF9F80
FFFFFF9F80
FFFFFF9F80
FFFFFF9F80
FFFFFF9F80
FFFFFF9F80
ENDCHAR
STARTCHAR 220
ENCODING 220
SWIDTH 2088 0
DWIDTH 29 0
BBX 25 31 2 0
BITMAP
FC000000
FC000000
FC000000
FC000000
FC000000
FC000000
FC000000
FC000000
FC000000
FC000000
FC000000
FC000000
FFFFFF80
FFFFFF80
FFFFFF80
FFFFFF80
FFFFFF80
FFFFFF80
FC001F80
FC001F80
FC001F80
FC001F80
FC001F80
FC001F80
FC001F80
FFFFFF80
FFFFFF80
FFFFFF80
FFFFFF80
FFFFFF80
FFFFFF80
ENDCHAR
STARTCHAR 221
ENCODING 221
SWIDTH 2088 0
DWIDTH 29 0
BBX 25 31 2 0
BITMAP
FFFFE000
FFFFE000
FFFFE000
FFFFE000
FFFFE000
FFFFE000
00001F80
00001F80
00001F80
00001F80
00001F80
00001F80
03FFFF80
03FFFF80
03FFFF80
03FFFF80
03FFFF80
03FFFF80
00001F80
00001F80
00001F80
00001F80
00001F80
00001F80
00001F80
FFFFE000
FFFFE000
FFFFE000
FFFFE000
FFFFE000
FFFFE000
ENDCHAR
STARTCHAR 222
ENCODING 222
SWIDTH 3024 0
DWIDTH 42 0
BBX 38 31 2 0
BITMAP
FC0FFFFFFC
FC0FFFFFFC
FC0FFFFFFC
FC0FFFFFFC
FC0FFFFFFC
FC0FFFFFFC
FC0FE001FC
FC0FE001FC
FC0FE001FC
FC0FE001FC
FC0FE001FC
FC0FE001FC
FFFFE001FC
FFFFE001FC
FFFFE001FC
FFFFE001FC
FFFFE001FC
FFFFE001FC
FC0FE001FC
FC0FE001FC
FC0FE001FC
FC0FE001FC
FC0FE001FC
FC0FE001FC
FC0FE001FC
FC0FFFFFFC
FC0FFFFFFC
FC0FFFFFFC
FC0FFFFFFC
FC0FFFFFFC
FC0FFFFFFC
ENDCHAR
STARTCHAR 223
ENCODING 223
SWIDTH 2088 0
DWIDTH 29 0
BBX 25 31 2 0
BITMAP
FFFFFF80
FFFFFF80
FFFFFF80
FFFFFF80
FFFFFF80
FFFFFF80
FC001F80
FC001F80
FC001F80
FC001F80
FC001F80
FC001F80
03FFFF80
03FFFF80
03FFFF80
03FFFF80
03FFFF80
03FFFF80
FC001F80
FC001F80
FC001F80
FC001F80
FC001F80
FC001F80
FC001F80
FC001F80
FC001F80
FC001F80
FC001F80
FC001F80
FC001F80
ENDCHAR
STARTCHAR 224
ENCODING 224
SWIDTH 2088 0
DWIDTH 29 0
BBX 25 31 2 0
BITMAP
FFFFFF80
FFFFFF80
FFFFFF80
FFFFFF80
FFFFFF80
FFFFFF80
FC001F80
FC001F80
FC001F80
FC001F80
FC001F80
FC001F80
FFFFFF80
FFFFFF80
FFFFFF80
FFFFFF80
FFFFFF80
FFFFFF80
FC001F80
FC001F80
FC001F80
FC001F80
FC001F80
FC001F80
FC001F80
FC001F80
FC001F80
FC001F80
FC001F80
FC001F80
FC001F80
ENDCHAR
STARTCHAR 225
ENCODING 225
SWIDTH 2088 0
DWIDTH 29 0
BBX 25 31 2 0
BITMAP
FFFFFF80
FFFFFF80
FFFFFF80
FFFFFF80
FFFFFF80
FFFFFF80
FC000000
FC000000
FC000000
FC000000
FC000000
FC000000
FFFFE000
FFFFE000
FFFFE000
FFFFE000
FFFFE000
FFFFE000
FC001F80
FC001F80
FC001F80
FC001F80
FC001F80
FC001F80
FC001F80
FFFFFF80
FFFFFF80
FFFFFF80
FFFFFF80
FFFFFF80
FFFFFF80
ENDCHAR
STARTCHAR 226
ENCODING 226
SWIDTH 2088 0
DWIDTH 29 0
BBX 25 31 2 0
BITMAP
FFFFFF80
FFFFFF80
FFFFFF80
FFFFFF80
FFFFFF80
FFFFFF80
FC003F80
FC003F80
FC003F80
FC003F80
FC003F80
FC003F80
FFFFE000
FFFFE000
FFFFE000
FFFFE000
FFFFE000
FFFFE000
FC003F80
FC003F80
FC003F80
FC003F80
FC003F80
FC003F80
FC003F80
FFFFFF80
FFFFFF80
FFFFFF80
FFFFFF80
FFFFFF80
FFFFFF80
ENDCHAR
STARTCHAR 227
ENCODING 227
SWIDTH 1800 0
DWIDTH 25 0
BBX 21 31 2 0
BITMAP
FFFFF8
FFFFF8
FFFFF8
FFFFF8
FFFFF8
FFFFF8
FC0000
FC0000
FC0000
FC0000
FC0000
FC0000
FC0000
FC0000
FC0000
FC0000
FC0000
FC0000
FC0000
FC0000
FC0000
FC0000
FC0000
FC0000
FC0000
FC0000
FC0000
FC0000
FC0000
FC0000
FC0000
ENDCHAR
STARTCHAR 228
ENCODING 228
SWIDTH 2520 0
DWIDTH 35 0
BBX 31 31 2 0
BITMAP
007FFFF0
007FFFF0
007FFFF0
007FFFF0
007FFFF0
007FFFF0
1FC003F0
1FC003F0
1FC003F0
1FC003F0
1FC003F0
1FC003F0
1FC003F0
1FC003F0
1FC003F0
1FC003F0
1FC003F0
1FC003F0
1FC003F0
1FC003F0
1FC003F0
1FC003F0
1FC003F0
1FC003F0
1FC003F0
FFFFFFFE
FFFFFFFE
FFFFFFFE
FFFFFFFE
FFFFFFFE
FFFFFFFE
ENDCHAR
STARTCHAR 229
ENCODING 229
SWIDTH 2088 0
DWIDTH 29 0
BBX 25 31 2 0
BITMAP
FFFFFF80
FFFFFF80
FFFFFF80
FFFFFF80
FFFFFF80
FFFFFF80
FC000000
FC000000
FC000000
FC000000
FC000000
FC000000
FFFFE000
FFFFE000
FFFFE000
FFFFE000
FFFFE000
FFFFE000
FC000000
FC000000
FC000000
FC000000
FC000000
FC000000
FC000000
FFFFFF80
FFFFFF80
FFFFFF80
FFFFFF80
FFFFFF80
FFFFFF80
ENDCHAR
STARTCHAR 230
ENCODING 230
SWIDTH 2520 0
DWIDTH 35 0
BBX 31 31 2 0
BITMAP
FC0FE07E
FC0FE07E
FC0FE07E
FC0FE07E
FC0FE07E
FC0FE07E
FC0FE07E
FC0FE07E
FC0FE07E
FC0FE07E
FC0FE07E
FC0FE07E
03FFFF80
03FFFF80
03FFFF80
03FFFF80
03FFFF80
03FFFF80
FC0FE07E
FC0FE07E
FC0FE07E
FC0FE07E
FC0FE07E
FC0FE07E
FC0FE07E
FC0FE07E
FC0FE07E
FC0FE07E
FC0FE07E
FC0FE07E
FC0FE07E
ENDCHAR
STARTCHAR 231
ENCODING 231
SWIDTH 2088 0
DWIDTH 29 0
BBX 25 31 2 0
BITMAP
FFFFFF80
FFFFFF80
FFFFFF80
FFFFFF80
FFFFFF80
FFFFFF80
00001F80
00001F80
00001F80
00001F80
00001F80
00001F80
03FFFF80
03FFFF80
03FFFF80
03FFFF80
03FFFF80
03FFFF80
00001F80
00001F80
00001F80
00001F80
00001F80
00001F80
00001F80
FFFFFF80
FFFFFF80
FFFFFF80
FFFFFF80
FFFFFF80
FFFFFF80
ENDCHAR
STARTCHAR 232
ENCODING 232
SWIDTH 2088 0
DWIDTH 29 0
BBX 25 31 2 0
BITMAP
FC001F80
FC001F80
FC001F80
FC001F80
FC001F80
FC001F80
FC001F80
FC001F80
FC001F80
FC001F80
FC001F80
FC001F80
FC001F80
FC001F80
FC001F80
FC001F80
FC001F80
FC001F80
FC001F80
FC001F80
FC001F80
FC001F80
FC001F80
FC001F80
FC001F80
03FFFF80
03FFFF80
03FFFF80
03FFFF80
03FFFF80
03FFFF80
ENDCHAR
STARTCHAR 233
ENCODING 233
SWIDTH 2088 0
DWIDTH 29 0
BBX 25 31 2 0
BITMAP
FC001F80
FC001F80
FC001F80
FC001F80
FC001F80
FC001F80
FC001F80
FC001F80
FC001F80
FC001F80
FC001F80
FC001F80
FC001F80
FC001F80
FC001F80
FC001F80
FC001F80
FC001F80
FC001F80
FC001F80
FC001F80
FC001F80
FC001F80
FC001F80
FC001F80
03FFFF80
03FFFF80
03FFFF80
03FFFF80
03FFFF80
03FFFF80
ENDCHAR
STARTCHAR 234
ENCODING 234
SWIDTH 2088 0
DWIDTH 29 0
BBX 25 31 2 0
BITMAP
FC001F80
FC001F80
FC001F80
FC001F80
FC001F80
FC001F80
FC001F80
FC001F80
FC001F80
FC001F80
FC001F80
FC001F80
FFFFE000
FFFFE000
FFFFE000
FFFFE000
FFFFE000
FFFFE000
FC001F80
FC001F80
FC001F80
FC001F80
FC001F80
FC001F80
FC001F80
FC001F80
FC001F80
FC001F80
FC001F80
FC001F80
FC001F80
ENDCHAR
STARTCHAR 235
ENCODING 235
SWIDTH 2088 0
DWIDTH 29 0
BBX 25 31 2 0
BITMAP
03FFFF80
03FFFF80
03FFFF80
03FFFF80
03FFFF80
03FFFF80
FC001F80
FC001F80
FC001F80
FC001F80
FC001F80
FC001F80
FC001F80
FC001F80
FC001F80
FC001F80
FC001F80
FC001F80
FC001F80
FC001F80
FC001F80
FC001F80
FC001F80
FC001F80
FC001F80
FC001F80
FC001F80
FC001F80
FC001F80
FC001F80
FC001F80
ENDCHAR
STARTCHAR 236
ENCODING 236
SWIDTH 2520 0
DWIDTH 35 0
BBX 31 31 2 0
BITMAP
FC00007E
FC00007E
FC00007E
FC00007E
FC00007E
FC00007E
FFF81FFE
FFF81FFE
FFF81FFE
FFF81FFE
FFF81FFE
FFF81FFE
FC0FE07E
FC0FE07E
FC0FE07E
FC0FE07E
FC0FE07E
FC0FE07E
FC0FE07E
FC0FE07E
FC0FE07E
FC0FE07E
FC0FE07E
FC0FE07E
FC0FE07E
FC0FE07E
FC0FE07E
FC0FE07E
FC0FE07E
FC0FE07E
FC0FE07E
ENDCHAR
STARTCHAR 237
ENCODING 237
SWIDTH 2088 0
DWIDTH 29 0
BBX 25 31 2 0
BITMAP
FC001F80
FC001F80
FC001F80
FC001F80
FC001F80
FC001F80
FC001F80
FC001F80
FC001F80
FC001F80
FC001F80
FC001F80
FFFFFF80
FFFFFF80
FFFFFF80
FFFFFF80
FFFFFF80
FFFFFF80
FC001F80
FC001F80
FC001F80
FC001F80
FC001F80
FC001F80
FC001F80
FC001F80
FC001F80
FC001F80
FC001F80
FC001F80
FC001F80
ENDCHAR
STARTCHAR 238
ENCODING 238
SWIDTH 2088 0
DWIDTH 29 0
BBX 25 31 2 0
BITMAP
FFFFFF80
FFFFFF80
FFFFFF80
FFFFFF80
FFFFFF80
FFFFFF80
FC001F80
FC001F80
FC001F80
FC001F80
FC001F80
FC001F80
FC001F80
FC001F80
FC001F80
FC001F80
FC001F80
FC001F80
FC001F80
FC001F80
FC001F80
FC001F80
FC001F80
FC001F80
FC001F80
FFFFFF80
FFFFFF80
FFFFFF80
FFFFFF80
FFFFFF80
FFFFFF80
ENDCHAR
STARTCHAR 239
ENCODING 239
SWIDTH 2088 0
DWIDTH 29 0
BBX 25 31 2 0
BITMAP
FFFFFF80
FFFFFF80
FFFFFF80
FFFFFF80
FFFFFF80
FFFFFF80
FC001F80
FC001F80
FC001F80
FC001F80
FC001F80
FC001F80
FC001F80
FC001F80
FC001F80
FC001F80
FC001F80
FC001F80
FC001F80
FC001F80
FC001F80
FC001F80
FC001F80
FC001F80
FC001F80
FC001F80
FC001F80
FC001F80
FC001F80
FC001F80
FC001F80
ENDCHAR
STARTCHAR 240
ENCODING 240
SWIDTH 2088 0
DWIDTH 29 0
BBX 25 31 2 0
BITMAP
FFFFFF80
FFFFFF80
FFFFFF80
FFFFFF80
FFFFFF80
FFFFFF80
FC001F80
FC001F80
FC001F80
FC001F80
FC001F80
FC001F80
FFFFFF80
FFFFFF80
FFFFFF80
FFFFFF80
FFFFFF80
FFFFFF80
FC000000
FC000000
FC000000
FC000000
FC000000
FC000000
FC000000
FC000000
FC000000
FC000000
FC000000
FC000000
FC000000
ENDCHAR
STARTCHAR 241
ENCODING 241
SWIDTH 2088 0
DWIDTH 29 0
BBX 25 31 2 0
BITMAP
FFFFFF80
FFFFFF80
FFFFFF80
FFFFFF80
FFFFFF80
FFFFFF80
FC000000
FC000000
FC000000
FC000000
FC000000
FC000000
FC000000
FC000000
FC000000
FC000000
FC000000
FC000000
FC000000
FC000000
FC000000
FC000000
FC000000
FC000000
FC000000
FFFFFF80
FFFFFF80
FFFFFF80
FFFFFF80
FFFFFF80
FFFFFF80
ENDCHAR
STARTCHAR 242
ENCODING 242
SWIDTH 2016 0
DWIDTH 28 0
BBX 24 31 2 0
BITMAP
FFFFFF
FFFFFF
FFFFFF
FFFFFF
FFFFFF
FFFFFF
007E00
007E00
007E00
007E00
007E00
007E00
007E00
007E00
007E00
007E00
007E00
007E00
007E00
007E00
007E00
007E00
007E00
007E00
007E00
007E00
007E00
007E00
007E00
007E00
007E00
ENDCHAR
STARTCHAR 243
ENCODING 243
SWIDTH 2088 0
DWIDTH 29 0
BBX 25 31 2 0
BITMAP
FC001F80
FC001F80
FC001F80
FC001F80
FC001F80
FC001F80
FC001F80
FC001F80
FC001F80
FC001F80
FC001F80
FC001F80
FFFFFF80
FFFFFF80
FFFFFF80
FFFFFF80
FFFFFF80
FFFFFF80
00001F80
00001F80
00001F80
00001F80
00001F80
00001F80
00001F80
FFFFFF80
FFFFFF80
FFFFFF80
FFFFFF80
FFFFFF80
FFFFFF80
ENDCHAR
STARTCHAR 244
ENCODING 244
SWIDTH 2520 0
DWIDTH 35 0
BBX 31 31 2 0
BITMAP
000FE000
000FE000
000FE000
000FE000
000FE000
000FE000
FFFFFFFE
FFFFFFFE
FFFFFFFE
FFFFFFFE
FFFFFFFE
FFFFFFFE
FC0FE07E
FC0FE07E
FC0FE07E
FC0FE07E
FC0FE07E
FC0FE07E
FFFFFFFE
FFFFFFFE
FFFFFFFE
FFFFFFFE
FFFFFFFE
FFFFFFFE
000FE000
000FE000
000FE000
000FE000
000FE000
000FE000
000FE000
ENDCHAR
STARTCHAR 245
ENCODING 245
SWIDTH 2088 0
DWIDTH 29 0
BBX 25 31 2 0
BITMAP
FC001F80
FC001F80
FC001F80
FC001F80
FC001F80
FC001F80
FC001F80
FC001F80
FC001F80
FC001F80
FC001F80
FC001F80
03FFE000
03FFE000
03FFE000
03FFE000
03FFE000
03FFE000
FC001F80
FC001F80
FC001F80
FC001F80
FC001F80
FC001F80
FC001F80
FC001F80
FC001F80
FC001F80
FC001F80
FC001F80
FC001F80
ENDCHAR
STARTCHAR 246
ENCODING 246
SWIDTH 2304 0
DWIDTH 32 0
BBX 28 31 2 0
BITMAP
FC001F80
FC001F80
FC001F80
FC001F80
FC001F80
FC001F80
FC001F80
FC001F80
FC001F80
FC001F80
FC001F80
FC001F80
FC001F80
FC001F80
FC001F80
FC001F80
FC001F80
FC001F80
FC001F80
FC001F80
FC001F80
FC001F80
FC001F80
FC001F80
FC001F80
FFFFFFF0
FFFFFFF0
FFFFFFF0
FFFFFFF0
FFFFFFF0
FFFFFFF0
ENDCHAR
STARTCHAR 247
ENCODING 247
SWIDTH 2088 0
DWIDTH 29 0
BBX 25 31 2 0
BITMAP
FC001F80
FC001F80
FC001F80
FC001F80
FC001F80
FC001F80
FC001F80
FC001F80
FC001F80
FC001F80
FC001F80
FC001F80
FFFFFF80
FFFFFF80
FFFFFF80
FFFFFF80
FFFFFF80
FFFFFF80
00001F80
00001F80
00001F80
00001F80
00001F80
00001F80
00001F80
00001F80
00001F80
00001F80
00001F80
00001F80
00001F80
ENDCHAR
STARTCHAR 248
ENCODING 248
SWIDTH 2520 0
DWIDTH 35 0
BBX 31 31 2 0
BITMAP
FC0FE07E
FC0FE07E
FC0FE07E
FC0FE07E
FC0FE07E
FC0FE07E
FC0FE07E
FC0FE07E
FC0FE07E
FC0FE07E
FC0FE07E
FC0FE07E
FC0FE07E
FC0FE07E
FC0FE07E
FC0FE07E
FC0FE07E
FC0FE07E
FC0FE07E
FC0FE07E
FC0FE07E
FC0FE07E
FC0FE07E
FC0FE07E
FC0FE07E
FFFFFFFE
FFFFFFFE
FFFFFFFE
FFFFFFFE
FFFFFFFE
FFFFFFFE
ENDCHAR
STARTCHAR 249
ENCODING 249
SWIDTH 2736 0
DWIDTH 38 0
BBX 34 31 2 0
BITMAP
FC0FE07E00
FC0FE07E00
FC0FE07E00
FC0FE07E00
FC0FE07E00
FC0FE07E00
FC0FE07E00
FC0FE07E00
FC0FE07E00
FC0FE07E00
FC0FE07E00
FC0FE07E00
FC0FE07E00
FC0FE07E00
FC0FE07E00
FC0FE07E00
FC0FE07E00
FC0FE07E00
FC0FE07E00
FC0FE07E00
FC0FE07E00
FC0FE07E00
FC0FE07E00
FC0FE07E00
FC0FE07E00
FFFFFFFFC0
FFFFFFFFC0
FFFFFFFFC0
FFFFFFFFC0
FFFFFFFFC0
FFFFFFFFC0
ENDCHAR
STARTCHAR 250
ENCODING 250
SWIDTH 2304 0
DWIDTH 32 0
BBX 28 31 2 0
BITMAP
FF800000
FF800000
FF800000
FF800000
FF800000
FF800000
1F800000
1F800000
1F800000
1F800000
1F800000
1F800000
1FFFFFF0
1FFFFFF0
1FFFFFF0
1FFFFFF0
1FFFFFF0
1FFFFFF0
1F8003F0
1F8003F0
1F8003F0
1F8003F0
1F8003F0
1F8003F0
1F8003F0
1FFFFFF0
1FFFFFF0
1FFFFFF0
1FFFFFF0
1FFFFFF0
1FFFFFF0
ENDCHAR
STARTCHAR 251
ENCODING 251
SWIDTH 2664 0
DWIDTH 37 0
BBX 33 31 2 0
BITMAP
FC00001F80
FC00001F80
FC00001F80
FC00001F80
FC00001F80
FC00001F80
FC00001F80
FC00001F80
FC00001F80
FC00001F80
FC00001F80
FC00001F80
FFFFFF9F80
FFFFFF9F80
FFFFFF9F80
FFFFFF9F80
FFFFFF9F80
FFFFFF9F80
FC001F9F80
FC001F9F80
FC001F9F80
FC001F9F80
FC001F9F80
FC001F9F80
FC001F9F80
FFFFFF9F80
FFFFFF9F80
FFFFFF9F80
FFFFFF9F80
FFFFFF9F80
FFFFFF9F80
ENDCHAR
STARTCHAR 252
ENCODING 252
SWIDTH 2088 0
DWIDTH 29 0
BBX 25 31 2 0
BITMAP
FC000000
FC000000
FC000000
FC000000
FC000000
FC000000
FC000000
FC000000
FC000000
FC000000
FC000000
FC000000
FFFFFF80
FFFFFF80
FFFFFF80
FFFFFF80
FFFFFF80
FFFFFF80
FC001F80
FC001F80
FC001F80
FC001F80
FC001F80
FC001F80
FC001F80
FFFFFF80
FFFFFF80
FFFFFF80
FFFFFF80
FFFFFF80
FFFFFF80
ENDCHAR
STARTCHAR 253
ENCODING 253
SWIDTH 2088 0
DWIDTH 29 0
BBX 25 31 2 0
BITMAP
FFFFE000
FFFFE000
FFFFE000
FFFFE000
FFFFE000
FFFFE000
00001F80
00001F80
00001F80
00001F80
00001F80
00001F80
03FFFF80
03FFFF80
03FFFF80
03FFFF80
03FFFF80
03FFFF80
00001F80
00001F80
00001F80
00001F80
00001F80
00001F80
00001F80
FFFFE000
FFFFE000
FFFFE000
FFFFE000
FFFFE000
FFFFE000
ENDCHAR
STARTCHAR 254
ENCODING 254
SWIDTH 3024 0
DWIDTH 42 0
BBX 38 31 2 0
BITMAP
FC0FFFFFFC
FC0FFFFFFC
FC0FFFFFFC
FC0FFFFFFC
FC0FFFFFFC
FC0FFFFFFC
FC0FE001FC
FC0FE001FC
FC0FE001FC
FC0FE001FC
FC0FE001FC
FC0FE001FC
FFFFE001FC
FFFFE001FC
FFFFE001FC
FFFFE001FC
FFFFE001FC
FFFFE001FC
FC0FE001FC
FC0FE001FC
FC0FE001FC
FC0FE001FC
FC0FE001FC
FC0FE001FC
FC0FE001FC
FC0FFFFFFC
FC0FFFFFFC
FC0FFFFFFC
FC0FFFFFFC
FC0FFFFFFC
FC0FFFFFFC
ENDCHAR
STARTCHAR 255
ENCODING 255
SWIDTH 2088 0
DWIDTH 29 0
BBX 25 31 2 0
BITMAP
FFFFFF80
FFFFFF80
FFFFFF80
FFFFFF80
FFFFFF80
FFFFFF80
FC001F80
FC001F80
FC001F80
FC001F80
FC001F80
FC001F80
03FFFF80
03FFFF80
03FFFF80
03FFFF80
03FFFF80
03FFFF80
FC001F80
FC001F80
FC001F80
FC001F80
FC001F80
FC001F80
FC001F80
FC001F80
FC001F80
FC001F80
FC001F80
FC001F80
FC001F80
ENDCHAR
ENDFONT
